<svg xmlns="http://www.w3.org/2000/svg" width="900" height="560" viewBox="0 0 900 560" role="img" aria-labelledby="title desc">
  <title id="title">A miscibility gap: where one composition costs more than two</title>
  <desc id="desc">Left: a sketch of the Gibbs energy of a symmetric regular solid solution with an interaction above the threshold of 2 RT: the curve has two wells, a hump between its inflection points (the spinodal), and the common tangent touches it at two compositions. Right: a composition inside the gap is cheaper as the two compositions of the tangent, in the proportions of the lever rule; the phase is declared twice, one instance on each.</desc>
  <defs>
    <marker id="arrow" markerWidth="8" markerHeight="8" refX="7" refY="4" orient="auto"><path d="M0 0 8 4 0 8Z" fill="#52667d"/></marker>
    <marker id="arrowo" markerWidth="8" markerHeight="8" refX="7" refY="4" orient="auto"><path d="M0 0 8 4 0 8Z" fill="#996019"/></marker>
    <marker id="arrowg" markerWidth="8" markerHeight="8" refX="7" refY="4" orient="auto"><path d="M0 0 8 4 0 8Z" fill="#177567"/></marker>
  </defs>
  <rect width="900" height="560" rx="18" fill="#f8fafc"/>
  <g font-family="Arial, Helvetica, sans-serif" fill="#172b42">
    <text x="36" y="43" font-size="15" font-weight="700" letter-spacing="2" fill="#52667d">THE GAP</text>
    <text x="36" y="70" font-size="16">A curve with two wells, and its common tangent</text>
    <path d="M90 430V140M90 430H420" fill="none" stroke="#52667d" stroke-width="2"/>
    <path d="M90 170V140" stroke="#52667d" stroke-width="2" marker-end="url(#arrow)"/>
    <path d="M390 430H420" stroke="#52667d" stroke-width="2" marker-end="url(#arrow)"/>
    <text x="255.0" y="462" text-anchor="middle" font-size="16">fraction of B in the phase, x</text>
    <text x="60" y="152" font-size="19" font-style="italic">G</text>
    <path d="M400.0 430.0L400.0 140.0" stroke="#52667d" stroke-width="2"/>
    <text x="90.0" y="452.0" font-size="15" fill="#52667d" text-anchor="middle">0</text>
    <text x="400.0" y="452.0" font-size="15" fill="#52667d" text-anchor="middle">1</text>
    <rect x="170.5" y="150" width="148.9" height="270" fill="#eef2f7"/>
    <text x="245.0" y="170.0" font-size="14" fill="#52667d" text-anchor="middle">spinodal: G curves down</text>
    <path d="M93.1 255.4 L93.6 258.9 L94.1 262.2 L94.7 265.3 L95.2 268.2 L95.7 270.9 L96.2 273.5 L96.7 275.9 L97.2 278.2 L97.8 280.4 L98.3 282.5 L98.8 284.5 L99.3 286.4 L99.8 288.2 L100.3 289.9 L100.8 291.6 L101.4 293.2 L101.9 294.7 L102.4 296.1 L102.9 297.5 L103.4 298.8 L104.0 300.1 L104.5 301.3 L105.0 302.5 L105.5 303.6 L106.0 304.6 L106.5 305.6 L107.0 306.6 L107.6 307.6 L108.1 308.4 L108.6 309.3 L109.1 310.1 L109.6 310.9 L110.2 311.6 L110.7 312.3 L111.2 313.0 L111.7 313.7 L112.2 314.3 L112.7 314.9 L113.2 315.4 L113.8 315.9 L114.3 316.4 L114.8 316.9 L115.3 317.4 L115.8 317.8 L116.3 318.2 L116.9 318.6 L117.4 318.9 L117.9 319.3 L118.4 319.6 L118.9 319.9 L119.5 320.2 L120.0 320.4 L120.5 320.7 L121.0 320.9 L121.5 321.1 L122.0 321.3 L122.5 321.4 L123.1 321.6 L123.6 321.7 L124.1 321.8 L124.6 321.9 L125.1 322.0 L125.7 322.1 L126.2 322.2 L126.7 322.2 L127.2 322.3 L127.7 322.3 L128.2 322.3 L128.8 322.3 L129.3 322.3 L129.8 322.3 L130.3 322.2 L130.8 322.2 L131.3 322.1 L131.8 322.0 L132.4 322.0 L132.9 321.9 L133.4 321.8 L133.9 321.7 L134.4 321.6 L134.9 321.4 L135.5 321.3 L136.0 321.2 L136.5 321.0 L137.0 320.9 L137.5 320.7 L138.1 320.5 L138.6 320.3 L139.1 320.2 L139.6 320.0 L140.1 319.8 L140.6 319.6 L141.2 319.3 L141.7 319.1 L142.2 318.9 L142.7 318.7 L143.2 318.4 L143.7 318.2 L144.2 317.9 L144.8 317.7 L145.3 317.4 L145.8 317.2 L146.3 316.9 L146.8 316.6 L147.3 316.3 L147.9 316.1 L148.4 315.8 L148.9 315.5 L149.4 315.2 L149.9 314.9 L150.4 314.6 L151.0 314.3 L151.5 314.0 L152.0 313.7 L152.5 313.4 L153.0 313.1 L153.6 312.7 L154.1 312.4 L154.6 312.1 L155.1 311.8 L155.6 311.4 L156.1 311.1 L156.7 310.8 L157.2 310.4 L157.7 310.1 L158.2 309.7 L158.7 309.4 L159.2 309.1 L159.8 308.7 L160.3 308.4 L160.8 308.0 L161.3 307.7 L161.8 307.3 L162.3 307.0 L162.8 306.6 L163.4 306.3 L163.9 305.9 L164.4 305.5 L164.9 305.2 L165.4 304.8 L165.9 304.5 L166.5 304.1 L167.0 303.7 L167.5 303.4 L168.0 303.0 L168.5 302.7 L169.1 302.3 L169.6 301.9 L170.1 301.6 L170.6 301.2 L171.1 300.8 L171.6 300.5 L172.2 300.1 L172.7 299.8 L173.2 299.4 L173.7 299.0 L174.2 298.7 L174.7 298.3 L175.2 297.9 L175.8 297.6 L176.3 297.2 L176.8 296.9 L177.3 296.5 L177.8 296.2 L178.3 295.8 L178.9 295.4 L179.4 295.1 L179.9 294.7 L180.4 294.4 L180.9 294.0 L181.4 293.7 L182.0 293.3 L182.5 293.0 L183.0 292.6 L183.5 292.3 L184.0 291.9 L184.6 291.6 L185.1 291.3 L185.6 290.9 L186.1 290.6 L186.6 290.3 L187.1 289.9 L187.7 289.6 L188.2 289.3 L188.7 288.9 L189.2 288.6 L189.7 288.3 L190.2 287.9 L190.8 287.6 L191.3 287.3 L191.8 287.0 L192.3 286.7 L192.8 286.4 L193.3 286.0 L193.9 285.7 L194.4 285.4 L194.9 285.1 L195.4 284.8 L195.9 284.5 L196.4 284.2 L196.9 283.9 L197.5 283.6 L198.0 283.3 L198.5 283.0 L199.0 282.7 L199.5 282.5 L200.1 282.2 L200.6 281.9 L201.1 281.6 L201.6 281.3 L202.1 281.1 L202.6 280.8 L203.1 280.5 L203.7 280.3 L204.2 280.0 L204.7 279.7 L205.2 279.5 L205.7 279.2 L206.2 279.0 L206.8 278.7 L207.3 278.5 L207.8 278.2 L208.3 278.0 L208.8 277.8 L209.4 277.5 L209.9 277.3 L210.4 277.1 L210.9 276.9 L211.4 276.6 L211.9 276.4 L212.4 276.2 L213.0 276.0 L213.5 275.8 L214.0 275.6 L214.5 275.4 L215.0 275.2 L215.6 275.0 L216.1 274.8 L216.6 274.6 L217.1 274.4 L217.6 274.2 L218.1 274.0 L218.7 273.8 L219.2 273.7 L219.7 273.5 L220.2 273.3 L220.7 273.2 L221.2 273.0 L221.8 272.8 L222.3 272.7 L222.8 272.5 L223.3 272.4 L223.8 272.2 L224.3 272.1 L224.8 272.0 L225.4 271.8 L225.9 271.7 L226.4 271.6 L226.9 271.4 L227.4 271.3 L227.9 271.2 L228.5 271.1 L229.0 271.0 L229.5 270.9 L230.0 270.7 L230.5 270.6 L231.1 270.6 L231.6 270.5 L232.1 270.4 L232.6 270.3 L233.1 270.2 L233.6 270.1 L234.2 270.0 L234.7 270.0 L235.2 269.9 L235.7 269.8 L236.2 269.8 L236.7 269.7 L237.2 269.7 L237.8 269.6 L238.3 269.6 L238.8 269.5 L239.3 269.5 L239.8 269.4 L240.3 269.4 L240.9 269.4 L241.4 269.3 L241.9 269.3 L242.4 269.3 L242.9 269.3 L243.4 269.3 L244.0 269.3 L244.5 269.2 L245.0 269.2 L245.5 269.2 L246.0 269.3 L246.6 269.3 L247.1 269.3 L247.6 269.3 L248.1 269.3 L248.6 269.3 L249.1 269.4 L249.7 269.4 L250.2 269.4 L250.7 269.5 L251.2 269.5 L251.7 269.6 L252.2 269.6 L252.8 269.7 L253.3 269.7 L253.8 269.8 L254.3 269.8 L254.8 269.9 L255.3 270.0 L255.9 270.0 L256.4 270.1 L256.9 270.2 L257.4 270.3 L257.9 270.4 L258.4 270.5 L259.0 270.6 L259.5 270.6 L260.0 270.7 L260.5 270.9 L261.0 271.0 L261.5 271.1 L262.1 271.2 L262.6 271.3 L263.1 271.4 L263.6 271.6 L264.1 271.7 L264.6 271.8 L265.1 272.0 L265.7 272.1 L266.2 272.2 L266.7 272.4 L267.2 272.5 L267.7 272.7 L268.2 272.8 L268.8 273.0 L269.3 273.2 L269.8 273.3 L270.3 273.5 L270.8 273.7 L271.4 273.8 L271.9 274.0 L272.4 274.2 L272.9 274.4 L273.4 274.6 L273.9 274.8 L274.4 275.0 L275.0 275.2 L275.5 275.4 L276.0 275.6 L276.5 275.8 L277.0 276.0 L277.5 276.2 L278.1 276.4 L278.6 276.6 L279.1 276.9 L279.6 277.1 L280.1 277.3 L280.6 277.5 L281.2 277.8 L281.7 278.0 L282.2 278.2 L282.7 278.5 L283.2 278.7 L283.8 279.0 L284.3 279.2 L284.8 279.5 L285.3 279.7 L285.8 280.0 L286.3 280.3 L286.9 280.5 L287.4 280.8 L287.9 281.1 L288.4 281.3 L288.9 281.6 L289.4 281.9 L290.0 282.2 L290.5 282.5 L291.0 282.7 L291.5 283.0 L292.0 283.3 L292.5 283.6 L293.1 283.9 L293.6 284.2 L294.1 284.5 L294.6 284.8 L295.1 285.1 L295.6 285.4 L296.1 285.7 L296.7 286.0 L297.2 286.4 L297.7 286.7 L298.2 287.0 L298.7 287.3 L299.2 287.6 L299.8 287.9 L300.3 288.3 L300.8 288.6 L301.3 288.9 L301.8 289.3 L302.4 289.6 L302.9 289.9 L303.4 290.3 L303.9 290.6 L304.4 290.9 L304.9 291.3 L305.4 291.6 L306.0 291.9 L306.5 292.3 L307.0 292.6 L307.5 293.0 L308.0 293.3 L308.5 293.7 L309.1 294.0 L309.6 294.4 L310.1 294.7 L310.6 295.1 L311.1 295.4 L311.6 295.8 L312.2 296.2 L312.7 296.5 L313.2 296.9 L313.7 297.2 L314.2 297.6 L314.8 297.9 L315.3 298.3 L315.8 298.7 L316.3 299.0 L316.8 299.4 L317.3 299.8 L317.9 300.1 L318.4 300.5 L318.9 300.8 L319.4 301.2 L319.9 301.6 L320.4 301.9 L320.9 302.3 L321.5 302.7 L322.0 303.0 L322.5 303.4 L323.0 303.7 L323.5 304.1 L324.1 304.5 L324.6 304.8 L325.1 305.2 L325.6 305.5 L326.1 305.9 L326.6 306.3 L327.1 306.6 L327.7 307.0 L328.2 307.3 L328.7 307.7 L329.2 308.0 L329.7 308.4 L330.2 308.7 L330.8 309.1 L331.3 309.4 L331.8 309.7 L332.3 310.1 L332.8 310.4 L333.4 310.8 L333.9 311.1 L334.4 311.4 L334.9 311.8 L335.4 312.1 L335.9 312.4 L336.5 312.7 L337.0 313.1 L337.5 313.4 L338.0 313.7 L338.5 314.0 L339.0 314.3 L339.6 314.6 L340.1 314.9 L340.6 315.2 L341.1 315.5 L341.6 315.8 L342.1 316.1 L342.6 316.3 L343.2 316.6 L343.7 316.9 L344.2 317.2 L344.7 317.4 L345.2 317.7 L345.8 317.9 L346.3 318.2 L346.8 318.4 L347.3 318.7 L347.8 318.9 L348.3 319.1 L348.8 319.3 L349.4 319.6 L349.9 319.8 L350.4 320.0 L350.9 320.2 L351.4 320.3 L351.9 320.5 L352.5 320.7 L353.0 320.9 L353.5 321.0 L354.0 321.2 L354.5 321.3 L355.1 321.4 L355.6 321.6 L356.1 321.7 L356.6 321.8 L357.1 321.9 L357.6 322.0 L358.1 322.0 L358.7 322.1 L359.2 322.2 L359.7 322.2 L360.2 322.3 L360.7 322.3 L361.2 322.3 L361.8 322.3 L362.3 322.3 L362.8 322.3 L363.3 322.2 L363.8 322.2 L364.4 322.1 L364.9 322.0 L365.4 321.9 L365.9 321.8 L366.4 321.7 L366.9 321.6 L367.4 321.4 L368.0 321.3 L368.5 321.1 L369.0 320.9 L369.5 320.7 L370.0 320.4 L370.6 320.2 L371.1 319.9 L371.6 319.6 L372.1 319.3 L372.6 318.9 L373.1 318.6 L373.7 318.2 L374.2 317.8 L374.7 317.4 L375.2 316.9 L375.7 316.4 L376.2 315.9 L376.8 315.4 L377.3 314.9 L377.8 314.3 L378.3 313.7 L378.8 313.0 L379.3 312.3 L379.9 311.6 L380.4 310.9 L380.9 310.1 L381.4 309.3 L381.9 308.4 L382.4 307.6 L382.9 306.6 L383.5 305.6 L384.0 304.6 L384.5 303.6 L385.0 302.5 L385.5 301.3 L386.1 300.1 L386.6 298.8 L387.1 297.5 L387.6 296.1 L388.1 294.7 L388.6 293.2 L389.1 291.6 L389.7 289.9 L390.2 288.2 L390.7 286.4 L391.2 284.5 L391.7 282.5 L392.2 280.4 L392.8 278.2 L393.3 275.9 L393.8 273.5 L394.3 270.9 L394.8 268.2 L395.4 265.3 L395.9 262.2 L396.4 258.9 L396.9 255.4" fill="none" stroke="#3664a0" stroke-width="4"/>
    <path d="M128.4 322.3 L361.6 322.3" fill="none" stroke="#996019" stroke-width="2.5"/>
    <circle cx="128.4" cy="322.3" r="6" fill="#177567"/>
    <circle cx="361.6" cy="322.3" r="6" fill="#177567"/>
    <text x="120.4" y="348.3" font-size="17" fill="#177567" text-anchor="middle" font-style="italic">x₁</text>
    <text x="369.6" y="348.3" font-size="17" fill="#177567" text-anchor="middle" font-style="italic">x₂</text>
    <text x="245.0" y="344.3" font-size="14" fill="#996019" text-anchor="middle">common tangent</text>
    <path d="M450 105V520" stroke="#d4dce7" stroke-width="1.5"/>
    <text x="480" y="43" font-size="15" font-weight="700" letter-spacing="2" fill="#52667d">TWO INSTANCES</text>
    <text x="480" y="70" font-size="16">What the calculation has to hold</text>
    <path d="M520 430V140M520 430H850" fill="none" stroke="#52667d" stroke-width="2"/>
    <path d="M520 170V140" stroke="#52667d" stroke-width="2" marker-end="url(#arrow)"/>
    <path d="M820 430H850" stroke="#52667d" stroke-width="2" marker-end="url(#arrow)"/>
    <text x="685.0" y="462" text-anchor="middle" font-size="16">fraction of B in the phase, x</text>
    <text x="490" y="152" font-size="19" font-style="italic">G</text>
    <path d="M850.0 430.0L850.0 140.0" stroke="#52667d" stroke-width="2"/>
    <path d="M523.3 255.4 L523.9 258.9 L524.4 262.2 L525.0 265.3 L525.5 268.2 L526.0 270.9 L526.6 273.5 L527.1 275.9 L527.7 278.2 L528.2 280.4 L528.8 282.5 L529.4 284.5 L529.9 286.4 L530.5 288.2 L531.0 289.9 L531.5 291.6 L532.1 293.2 L532.6 294.7 L533.2 296.1 L533.8 297.5 L534.3 298.8 L534.9 300.1 L535.4 301.3 L536.0 302.5 L536.5 303.6 L537.0 304.6 L537.6 305.6 L538.1 306.6 L538.7 307.6 L539.2 308.4 L539.8 309.3 L540.4 310.1 L540.9 310.9 L541.5 311.6 L542.0 312.3 L542.5 313.0 L543.1 313.7 L543.6 314.3 L544.2 314.9 L544.8 315.4 L545.3 315.9 L545.9 316.4 L546.4 316.9 L547.0 317.4 L547.5 317.8 L548.0 318.2 L548.6 318.6 L549.1 318.9 L549.7 319.3 L550.2 319.6 L550.8 319.9 L551.4 320.2 L551.9 320.4 L552.5 320.7 L553.0 320.9 L553.5 321.1 L554.1 321.3 L554.6 321.4 L555.2 321.6 L555.8 321.7 L556.3 321.8 L556.9 321.9 L557.4 322.0 L558.0 322.1 L558.5 322.2 L559.0 322.2 L559.6 322.3 L560.1 322.3 L560.7 322.3 L561.2 322.3 L561.8 322.3 L562.4 322.3 L562.9 322.2 L563.5 322.2 L564.0 322.1 L564.5 322.0 L565.1 322.0 L565.6 321.9 L566.2 321.8 L566.8 321.7 L567.3 321.6 L567.9 321.4 L568.4 321.3 L569.0 321.2 L569.5 321.0 L570.0 320.9 L570.6 320.7 L571.1 320.5 L571.7 320.3 L572.2 320.2 L572.8 320.0 L573.4 319.8 L573.9 319.6 L574.5 319.3 L575.0 319.1 L575.5 318.9 L576.1 318.7 L576.6 318.4 L577.2 318.2 L577.8 317.9 L578.3 317.7 L578.9 317.4 L579.4 317.2 L580.0 316.9 L580.5 316.6 L581.0 316.3 L581.6 316.1 L582.1 315.8 L582.7 315.5 L583.2 315.2 L583.8 314.9 L584.4 314.6 L584.9 314.3 L585.5 314.0 L586.0 313.7 L586.5 313.4 L587.1 313.1 L587.6 312.7 L588.2 312.4 L588.8 312.1 L589.3 311.8 L589.9 311.4 L590.4 311.1 L591.0 310.8 L591.5 310.4 L592.0 310.1 L592.6 309.7 L593.1 309.4 L593.7 309.1 L594.2 308.7 L594.8 308.4 L595.4 308.0 L595.9 307.7 L596.5 307.3 L597.0 307.0 L597.5 306.6 L598.1 306.3 L598.6 305.9 L599.2 305.5 L599.8 305.2 L600.3 304.8 L600.9 304.5 L601.4 304.1 L602.0 303.7 L602.5 303.4 L603.0 303.0 L603.6 302.7 L604.1 302.3 L604.7 301.9 L605.2 301.6 L605.8 301.2 L606.4 300.8 L606.9 300.5 L607.5 300.1 L608.0 299.8 L608.5 299.4 L609.1 299.0 L609.6 298.7 L610.2 298.3 L610.8 297.9 L611.3 297.6 L611.9 297.2 L612.4 296.9 L613.0 296.5 L613.5 296.2 L614.0 295.8 L614.6 295.4 L615.1 295.1 L615.7 294.7 L616.2 294.4 L616.8 294.0 L617.4 293.7 L617.9 293.3 L618.5 293.0 L619.0 292.6 L619.5 292.3 L620.1 291.9 L620.6 291.6 L621.2 291.3 L621.8 290.9 L622.3 290.6 L622.9 290.3 L623.4 289.9 L624.0 289.6 L624.5 289.3 L625.0 288.9 L625.6 288.6 L626.1 288.3 L626.7 287.9 L627.2 287.6 L627.8 287.3 L628.4 287.0 L628.9 286.7 L629.5 286.4 L630.0 286.0 L630.5 285.7 L631.1 285.4 L631.6 285.1 L632.2 284.8 L632.8 284.5 L633.3 284.2 L633.9 283.9 L634.4 283.6 L635.0 283.3 L635.5 283.0 L636.0 282.7 L636.6 282.5 L637.1 282.2 L637.7 281.9 L638.2 281.6 L638.8 281.3 L639.4 281.1 L639.9 280.8 L640.5 280.5 L641.0 280.3 L641.5 280.0 L642.1 279.7 L642.6 279.5 L643.2 279.2 L643.8 279.0 L644.3 278.7 L644.9 278.5 L645.4 278.2 L646.0 278.0 L646.5 277.8 L647.0 277.5 L647.6 277.3 L648.1 277.1 L648.7 276.9 L649.2 276.6 L649.8 276.4 L650.4 276.2 L650.9 276.0 L651.5 275.8 L652.0 275.6 L652.5 275.4 L653.1 275.2 L653.6 275.0 L654.2 274.8 L654.8 274.6 L655.3 274.4 L655.9 274.2 L656.4 274.0 L657.0 273.8 L657.5 273.7 L658.0 273.5 L658.6 273.3 L659.1 273.2 L659.7 273.0 L660.2 272.8 L660.8 272.7 L661.4 272.5 L661.9 272.4 L662.5 272.2 L663.0 272.1 L663.5 272.0 L664.1 271.8 L664.6 271.7 L665.2 271.6 L665.8 271.4 L666.3 271.3 L666.9 271.2 L667.4 271.1 L668.0 271.0 L668.5 270.9 L669.0 270.7 L669.6 270.6 L670.1 270.6 L670.7 270.5 L671.2 270.4 L671.8 270.3 L672.4 270.2 L672.9 270.1 L673.5 270.0 L674.0 270.0 L674.5 269.9 L675.1 269.8 L675.6 269.8 L676.2 269.7 L676.8 269.7 L677.3 269.6 L677.9 269.6 L678.4 269.5 L679.0 269.5 L679.5 269.4 L680.0 269.4 L680.6 269.4 L681.1 269.3 L681.7 269.3 L682.2 269.3 L682.8 269.3 L683.4 269.3 L683.9 269.3 L684.5 269.2 L685.0 269.2 L685.5 269.2 L686.1 269.3 L686.6 269.3 L687.2 269.3 L687.8 269.3 L688.3 269.3 L688.9 269.3 L689.4 269.4 L690.0 269.4 L690.5 269.4 L691.0 269.5 L691.6 269.5 L692.1 269.6 L692.7 269.6 L693.2 269.7 L693.8 269.7 L694.4 269.8 L694.9 269.8 L695.5 269.9 L696.0 270.0 L696.5 270.0 L697.1 270.1 L697.6 270.2 L698.2 270.3 L698.8 270.4 L699.3 270.5 L699.9 270.6 L700.4 270.6 L701.0 270.7 L701.5 270.9 L702.0 271.0 L702.6 271.1 L703.1 271.2 L703.7 271.3 L704.2 271.4 L704.8 271.6 L705.4 271.7 L705.9 271.8 L706.5 272.0 L707.0 272.1 L707.5 272.2 L708.1 272.4 L708.6 272.5 L709.2 272.7 L709.8 272.8 L710.3 273.0 L710.9 273.2 L711.4 273.3 L712.0 273.5 L712.5 273.7 L713.0 273.8 L713.6 274.0 L714.1 274.2 L714.7 274.4 L715.2 274.6 L715.8 274.8 L716.4 275.0 L716.9 275.2 L717.5 275.4 L718.0 275.6 L718.5 275.8 L719.1 276.0 L719.6 276.2 L720.2 276.4 L720.8 276.6 L721.3 276.9 L721.9 277.1 L722.4 277.3 L723.0 277.5 L723.5 277.8 L724.0 278.0 L724.6 278.2 L725.1 278.5 L725.7 278.7 L726.2 279.0 L726.8 279.2 L727.4 279.5 L727.9 279.7 L728.5 280.0 L729.0 280.3 L729.5 280.5 L730.1 280.8 L730.6 281.1 L731.2 281.3 L731.8 281.6 L732.3 281.9 L732.9 282.2 L733.4 282.5 L734.0 282.7 L734.5 283.0 L735.0 283.3 L735.6 283.6 L736.1 283.9 L736.7 284.2 L737.2 284.5 L737.8 284.8 L738.4 285.1 L738.9 285.4 L739.5 285.7 L740.0 286.0 L740.5 286.4 L741.1 286.7 L741.6 287.0 L742.2 287.3 L742.8 287.6 L743.3 287.9 L743.9 288.3 L744.4 288.6 L745.0 288.9 L745.5 289.3 L746.0 289.6 L746.6 289.9 L747.1 290.3 L747.7 290.6 L748.2 290.9 L748.8 291.3 L749.4 291.6 L749.9 291.9 L750.5 292.3 L751.0 292.6 L751.5 293.0 L752.1 293.3 L752.6 293.7 L753.2 294.0 L753.8 294.4 L754.3 294.7 L754.9 295.1 L755.4 295.4 L756.0 295.8 L756.5 296.2 L757.0 296.5 L757.6 296.9 L758.1 297.2 L758.7 297.6 L759.2 297.9 L759.8 298.3 L760.4 298.7 L760.9 299.0 L761.5 299.4 L762.0 299.8 L762.5 300.1 L763.1 300.5 L763.6 300.8 L764.2 301.2 L764.8 301.6 L765.3 301.9 L765.9 302.3 L766.4 302.7 L767.0 303.0 L767.5 303.4 L768.0 303.7 L768.6 304.1 L769.1 304.5 L769.7 304.8 L770.2 305.2 L770.8 305.5 L771.4 305.9 L771.9 306.3 L772.5 306.6 L773.0 307.0 L773.5 307.3 L774.1 307.7 L774.6 308.0 L775.2 308.4 L775.8 308.7 L776.3 309.1 L776.9 309.4 L777.4 309.7 L778.0 310.1 L778.5 310.4 L779.0 310.8 L779.6 311.1 L780.1 311.4 L780.7 311.8 L781.2 312.1 L781.8 312.4 L782.4 312.7 L782.9 313.1 L783.5 313.4 L784.0 313.7 L784.5 314.0 L785.1 314.3 L785.7 314.6 L786.2 314.9 L786.8 315.2 L787.3 315.5 L787.8 315.8 L788.4 316.1 L789.0 316.3 L789.5 316.6 L790.0 316.9 L790.6 317.2 L791.1 317.4 L791.7 317.7 L792.2 317.9 L792.8 318.2 L793.4 318.4 L793.9 318.7 L794.5 318.9 L795.0 319.1 L795.5 319.3 L796.1 319.6 L796.7 319.8 L797.2 320.0 L797.8 320.2 L798.3 320.3 L798.8 320.5 L799.4 320.7 L800.0 320.9 L800.5 321.0 L801.0 321.2 L801.6 321.3 L802.1 321.4 L802.7 321.6 L803.2 321.7 L803.8 321.8 L804.4 321.9 L804.9 322.0 L805.5 322.0 L806.0 322.1 L806.5 322.2 L807.1 322.2 L807.7 322.3 L808.2 322.3 L808.8 322.3 L809.3 322.3 L809.8 322.3 L810.4 322.3 L811.0 322.2 L811.5 322.2 L812.0 322.1 L812.6 322.0 L813.1 321.9 L813.7 321.8 L814.2 321.7 L814.8 321.6 L815.4 321.4 L815.9 321.3 L816.5 321.1 L817.0 320.9 L817.5 320.7 L818.1 320.4 L818.7 320.2 L819.2 319.9 L819.8 319.6 L820.3 319.3 L820.8 318.9 L821.4 318.6 L822.0 318.2 L822.5 317.8 L823.0 317.4 L823.6 316.9 L824.1 316.4 L824.7 315.9 L825.2 315.4 L825.8 314.9 L826.4 314.3 L826.9 313.7 L827.5 313.0 L828.0 312.3 L828.5 311.6 L829.1 310.9 L829.7 310.1 L830.2 309.3 L830.8 308.4 L831.3 307.6 L831.8 306.6 L832.4 305.6 L833.0 304.6 L833.5 303.6 L834.0 302.5 L834.6 301.3 L835.1 300.1 L835.7 298.8 L836.2 297.5 L836.8 296.1 L837.4 294.7 L837.9 293.2 L838.5 291.6 L839.0 289.9 L839.5 288.2 L840.1 286.4 L840.6 284.5 L841.2 282.5 L841.8 280.4 L842.3 278.2 L842.9 275.9 L843.4 273.5 L844.0 270.9 L844.5 268.2 L845.0 265.3 L845.6 262.2 L846.1 258.9 L846.7 255.4" fill="none" stroke="#b9c6d5" stroke-width="3"/>
    <path d="M560.9 322.3 L809.1 322.3" fill="none" stroke="#996019" stroke-width="2.5"/>
    <circle cx="658.6" cy="273.3" r="6" fill="#52667d"/>
    <text x="668.6" y="261.3" font-size="14" fill="#52667d" text-anchor="start">one composition x̄ costs more</text>
    <path d="M658.6 273.3L658.6 311.5" stroke="#52667d" stroke-width="2" stroke-dasharray="5 4" marker-end="url(#arrow)"/>
    <circle cx="658.6" cy="322.3" r="5" fill="#996019"/>
    <circle cx="560.9" cy="322.3" r="6" fill="#177567"/>
    <circle cx="809.1" cy="322.3" r="6" fill="#177567"/>
    <text x="560.9" y="308.3" font-size="14" fill="#177567" text-anchor="middle">instance 1</text>
    <text x="809.1" y="308.3" font-size="14" fill="#177567" text-anchor="middle">instance 2</text>
    <text x="685.0" y="344.3" font-size="14" fill="#996019" text-anchor="middle">than the same matter split on the tangent</text>
    <text x="685.0" y="364.3" font-size="14" fill="#996019" text-anchor="middle">(in the proportions of the lever rule)</text>
    <rect x="40" y="484" width="820" height="46" rx="10" fill="#e8eef8"/>
    <text x="62.0" y="513.0" font-size="16" fill="#172b42" text-anchor="start">Sketch: a symmetric regular model with an interaction above 2 RT. The computed gap is plotted on the page.</text>
  </g>
</svg>
