<?xml version="1.0" encoding="utf-8"?>
<svg xmlns="http://www.w3.org/2000/svg" xmlns:xlink="http://www.w3.org/1999/xlink" width="860" height="400" viewBox="0 0 3440 1600">
<defs>
  <clipPath id="clip410">
    <rect x="0" y="0" width="3440" height="1600"/>
  </clipPath>
</defs>
<path clip-path="url(#clip410)" d="M0 1600 L3440 1600 L3440 0 L0 0  Z" fill="#ffffff" fill-rule="evenodd" fill-opacity="1"/>
<defs>
  <clipPath id="clip411">
    <rect x="314" y="50" width="2398" height="1287"/>
  </clipPath>
</defs>
<path clip-path="url(#clip410)" d="M326.136 1270.08 L3345.51 1270.08 L3345.51 136.684 L326.136 136.684  Z" fill="#ffffff" fill-rule="evenodd" fill-opacity="1"/>
<defs>
  <clipPath id="clip412">
    <rect x="326" y="136" width="3020" height="1134"/>
  </clipPath>
</defs>
<polyline clip-path="url(#clip410)" style="stroke:#000000; stroke-linecap:round; stroke-linejoin:round; stroke-width:4; stroke-opacity:1; fill:none" points="326.136,1270.08 3345.51,1270.08 "/>
<polyline clip-path="url(#clip410)" style="stroke:#000000; stroke-linecap:round; stroke-linejoin:round; stroke-width:4; stroke-opacity:1; fill:none" points="326.136,136.684 3345.51,136.684 "/>
<polyline clip-path="url(#clip410)" style="stroke:#000000; stroke-linecap:round; stroke-linejoin:round; stroke-width:4; stroke-opacity:1; fill:none" points="594.096,1270.08 594.096,1251.18 "/>
<polyline clip-path="url(#clip410)" style="stroke:#000000; stroke-linecap:round; stroke-linejoin:round; stroke-width:4; stroke-opacity:1; fill:none" points="870.036,1270.08 870.036,1251.18 "/>
<polyline clip-path="url(#clip410)" style="stroke:#000000; stroke-linecap:round; stroke-linejoin:round; stroke-width:4; stroke-opacity:1; fill:none" points="1145.98,1270.08 1145.98,1251.18 "/>
<polyline clip-path="url(#clip410)" style="stroke:#000000; stroke-linecap:round; stroke-linejoin:round; stroke-width:4; stroke-opacity:1; fill:none" points="1421.91,1270.08 1421.91,1251.18 "/>
<polyline clip-path="url(#clip410)" style="stroke:#000000; stroke-linecap:round; stroke-linejoin:round; stroke-width:4; stroke-opacity:1; fill:none" points="1697.85,1270.08 1697.85,1251.18 "/>
<polyline clip-path="url(#clip410)" style="stroke:#000000; stroke-linecap:round; stroke-linejoin:round; stroke-width:4; stroke-opacity:1; fill:none" points="1973.79,1270.08 1973.79,1251.18 "/>
<polyline clip-path="url(#clip410)" style="stroke:#000000; stroke-linecap:round; stroke-linejoin:round; stroke-width:4; stroke-opacity:1; fill:none" points="2249.73,1270.08 2249.73,1251.18 "/>
<polyline clip-path="url(#clip410)" style="stroke:#000000; stroke-linecap:round; stroke-linejoin:round; stroke-width:4; stroke-opacity:1; fill:none" points="2525.67,1270.08 2525.67,1251.18 "/>
<polyline clip-path="url(#clip410)" style="stroke:#000000; stroke-linecap:round; stroke-linejoin:round; stroke-width:4; stroke-opacity:1; fill:none" points="2801.61,1270.08 2801.61,1251.18 "/>
<polyline clip-path="url(#clip410)" style="stroke:#000000; stroke-linecap:round; stroke-linejoin:round; stroke-width:4; stroke-opacity:1; fill:none" points="3077.55,1270.08 3077.55,1251.18 "/>
<polyline clip-path="url(#clip410)" style="stroke:#000000; stroke-linecap:round; stroke-linejoin:round; stroke-width:4; stroke-opacity:1; fill:none" points="594.096,136.684 594.096,155.581 "/>
<polyline clip-path="url(#clip410)" style="stroke:#000000; stroke-linecap:round; stroke-linejoin:round; stroke-width:4; stroke-opacity:1; fill:none" points="870.036,136.684 870.036,155.581 "/>
<polyline clip-path="url(#clip410)" style="stroke:#000000; stroke-linecap:round; stroke-linejoin:round; stroke-width:4; stroke-opacity:1; fill:none" points="1145.98,136.684 1145.98,155.581 "/>
<polyline clip-path="url(#clip410)" style="stroke:#000000; stroke-linecap:round; stroke-linejoin:round; stroke-width:4; stroke-opacity:1; fill:none" points="1421.91,136.684 1421.91,155.581 "/>
<polyline clip-path="url(#clip410)" style="stroke:#000000; stroke-linecap:round; stroke-linejoin:round; stroke-width:4; stroke-opacity:1; fill:none" points="1697.85,136.684 1697.85,155.581 "/>
<polyline clip-path="url(#clip410)" style="stroke:#000000; stroke-linecap:round; stroke-linejoin:round; stroke-width:4; stroke-opacity:1; fill:none" points="1973.79,136.684 1973.79,155.581 "/>
<polyline clip-path="url(#clip410)" style="stroke:#000000; stroke-linecap:round; stroke-linejoin:round; stroke-width:4; stroke-opacity:1; fill:none" points="2249.73,136.684 2249.73,155.581 "/>
<polyline clip-path="url(#clip410)" style="stroke:#000000; stroke-linecap:round; stroke-linejoin:round; stroke-width:4; stroke-opacity:1; fill:none" points="2525.67,136.684 2525.67,155.581 "/>
<polyline clip-path="url(#clip410)" style="stroke:#000000; stroke-linecap:round; stroke-linejoin:round; stroke-width:4; stroke-opacity:1; fill:none" points="2801.61,136.684 2801.61,155.581 "/>
<polyline clip-path="url(#clip410)" style="stroke:#000000; stroke-linecap:round; stroke-linejoin:round; stroke-width:4; stroke-opacity:1; fill:none" points="3077.55,136.684 3077.55,155.581 "/>
<path clip-path="url(#clip410)" d="M396.234 1439.19 Q391.763 1441.77 390.629 1443.78 Q389.496 1445.8 390.919 1448.27 Q392.053 1450.23 394.008 1450.66 Q395.971 1451.05 398.196 1449.76 Q401.263 1447.99 401.857 1444.76 Q402.46 1441.5 400.377 1437.89 L399.902 1437.07 L396.234 1439.19 M402.711 1433.42 L410.107 1446.22 L406.418 1448.35 L404.451 1444.95 Q404.368 1447.72 403.051 1449.79 Q401.722 1451.84 398.996 1453.42 Q395.548 1455.41 392.392 1454.66 Q389.244 1453.89 387.37 1450.64 Q385.182 1446.85 386.597 1443.47 Q388.032 1440.07 393.063 1437.17 L398.235 1434.18 L398.027 1433.82 Q396.557 1431.27 394.075 1430.86 Q391.601 1430.42 388.574 1432.17 Q386.649 1433.28 385.091 1434.79 Q383.533 1436.31 382.381 1438.2 L380.414 1434.79 Q381.987 1432.84 383.672 1431.36 Q385.345 1429.86 387.149 1428.82 Q392.02 1426.01 395.884 1427.15 Q399.748 1428.28 402.711 1433.42 Z" fill="#000000" fill-rule="nonzero" fill-opacity="1" /><path clip-path="url(#clip410)" d="M428.544 1417.51 L436.368 1431.06 L432.68 1433.19 L424.925 1419.76 Q423.085 1416.57 420.927 1415.71 Q418.77 1414.84 416.284 1416.28 Q413.297 1418 412.673 1420.9 Q412.048 1423.8 413.947 1427.09 L421.273 1439.78 L417.564 1441.92 L404.601 1419.47 L408.31 1417.33 L410.324 1420.81 Q410.478 1418.03 411.683 1415.99 Q412.909 1413.95 415.254 1412.59 Q419.124 1410.36 422.497 1411.62 Q425.859 1412.86 428.544 1417.51 Z" fill="#000000" fill-rule="nonzero" fill-opacity="1" /><path clip-path="url(#clip410)" d="M454.565 1402.49 L462.389 1416.04 L458.7 1418.17 L450.946 1404.74 Q449.105 1401.55 446.948 1400.68 Q444.791 1399.82 442.305 1401.25 Q439.318 1402.98 438.694 1405.88 Q438.069 1408.78 439.967 1412.07 L447.294 1424.76 L443.585 1426.9 L425.576 1395.7 L429.284 1393.56 L436.345 1405.79 Q436.499 1403 437.704 1400.97 Q438.93 1398.93 441.275 1397.57 Q445.144 1395.34 448.518 1396.6 Q451.88 1397.84 454.565 1402.49 Z" fill="#000000" fill-rule="nonzero" fill-opacity="1" /><path clip-path="url(#clip410)" d="M480.292 1408.48 Q481.043 1413.4 480.265 1415.48 Q479.488 1417.55 477.002 1418.99 L474.055 1420.69 L472.273 1417.6 L474.438 1416.35 Q475.961 1415.47 476.387 1414.27 Q476.812 1413.06 476.283 1409.78 L475.973 1407.72 L454.137 1390.87 L458.046 1388.61 L475.201 1402.12 L472.079 1380.51 L475.988 1378.25 L480.292 1408.48 Z" fill="#000000" fill-rule="nonzero" fill-opacity="1" /><path clip-path="url(#clip410)" d="M497.822 1370.19 L490.808 1358.04 L494.497 1355.91 L512.506 1387.1 L508.817 1389.23 L506.873 1385.87 Q506.867 1388.54 505.65 1390.55 Q504.442 1392.54 501.956 1393.97 Q497.887 1396.32 493.446 1394.55 Q489.025 1392.78 485.969 1387.48 Q482.914 1382.19 483.585 1377.47 Q484.276 1372.75 488.345 1370.4 Q490.831 1368.96 493.162 1368.92 Q495.502 1368.86 497.822 1370.19 M489.778 1385.29 Q492.128 1389.35 495.134 1390.72 Q498.149 1392.05 501.076 1390.36 Q504.003 1388.67 504.356 1385.4 Q504.697 1382.1 502.347 1378.03 Q499.998 1373.96 496.983 1372.63 Q493.956 1371.27 491.03 1372.96 Q488.103 1374.65 487.761 1377.95 Q487.428 1381.22 489.778 1385.29 Z" fill="#000000" fill-rule="nonzero" fill-opacity="1" /><path clip-path="url(#clip410)" d="M522.142 1356.2 Q521.312 1356.2 520.478 1356.47 Q519.652 1356.7 518.77 1357.21 Q515.642 1359.02 515.139 1362.04 Q514.644 1365.02 516.843 1368.83 L523.672 1380.66 L519.963 1382.8 L507 1360.35 L510.709 1358.21 L512.723 1361.69 Q512.705 1358.98 514.002 1356.92 Q515.288 1354.84 517.954 1353.3 Q518.335 1353.08 518.831 1352.88 Q519.315 1352.65 519.934 1352.43 L522.142 1356.2 Z" fill="#000000" fill-rule="nonzero" fill-opacity="1" /><path clip-path="url(#clip410)" d="M533.311 1348.6 Q530.344 1350.32 529.963 1353.64 Q529.57 1356.94 531.896 1360.97 Q534.223 1365 537.269 1366.34 Q540.324 1367.65 543.311 1365.92 Q546.258 1364.22 546.64 1360.9 Q547.021 1357.58 544.706 1353.57 Q542.403 1349.58 539.336 1348.25 Q536.258 1346.9 533.311 1348.6 M531.506 1345.48 Q536.317 1342.7 540.869 1344.24 Q545.421 1345.78 548.615 1351.32 Q551.798 1356.83 550.869 1361.56 Q549.928 1366.27 545.117 1369.05 Q540.286 1371.84 535.734 1370.3 Q531.19 1368.73 528.007 1363.21 Q524.813 1357.68 525.734 1352.98 Q526.674 1348.27 531.506 1345.48 Z" fill="#000000" fill-rule="nonzero" fill-opacity="1" /><path clip-path="url(#clip410)" d="M555.703 1350.35 L547.856 1336.76 L551.544 1334.63 L559.31 1348.08 Q561.151 1351.27 563.32 1352.15 Q565.477 1353.02 567.963 1351.59 Q570.95 1349.86 571.574 1346.96 Q572.219 1344.05 570.32 1340.76 L562.971 1328.03 L566.66 1325.9 L579.622 1348.36 L575.934 1350.48 L573.943 1347.04 Q573.781 1349.86 572.575 1351.89 Q571.378 1353.89 569.033 1355.24 Q565.164 1357.48 561.77 1356.23 Q558.376 1354.98 555.703 1350.35 M556.825 1330.86 L556.825 1330.86 Z" fill="#000000" fill-rule="nonzero" fill-opacity="1" /><path clip-path="url(#clip410)" d="M588.953 1313.91 L590.966 1317.4 Q588.94 1317.5 587.024 1318.07 Q585.109 1318.65 583.305 1319.69 Q580.558 1321.27 579.661 1322.91 Q578.784 1324.54 579.756 1326.23 Q580.497 1327.51 581.908 1327.68 Q583.307 1327.84 586.656 1326.79 L588.081 1326.34 Q592.496 1324.91 595.031 1325.51 Q597.574 1326.07 599.16 1328.82 Q600.966 1331.94 599.533 1335.2 Q598.12 1338.45 593.79 1340.95 Q591.986 1341.99 589.813 1342.77 Q587.672 1343.55 585.102 1344.1 L582.903 1340.29 Q585.561 1340.17 587.858 1339.56 Q590.144 1338.94 592.088 1337.82 Q594.694 1336.31 595.588 1334.62 Q596.471 1332.91 595.533 1331.28 Q594.665 1329.78 593.18 1329.57 Q591.714 1329.35 587.858 1330.58 L586.402 1331.02 Q582.557 1332.28 580.177 1331.68 Q577.785 1331.05 576.281 1328.45 Q574.452 1325.28 575.702 1322.26 Q576.952 1319.24 581.081 1316.85 Q583.126 1315.67 585.104 1314.93 Q587.082 1314.19 588.953 1313.91 Z" fill="#000000" fill-rule="nonzero" fill-opacity="1" /><path clip-path="url(#clip410)" d="M730.353 1405.33 Q728.038 1401.32 725.101 1400.07 Q722.184 1398.82 719.198 1400.54 Q716.231 1402.26 715.84 1405.42 Q715.469 1408.58 717.784 1412.59 Q720.087 1416.57 723.004 1417.83 Q725.941 1419.08 728.908 1417.36 Q731.895 1415.64 732.266 1412.48 Q732.657 1409.32 730.353 1405.33 M739.065 1411.9 Q742.375 1417.63 741.438 1421.89 Q740.512 1426.17 735.26 1429.2 Q733.316 1430.32 731.418 1431.02 Q729.532 1431.73 727.561 1432.07 L725.489 1428.48 Q727.622 1428.42 729.449 1427.93 Q731.276 1427.44 732.92 1426.49 Q736.548 1424.39 737.253 1421.45 Q737.969 1418.52 735.758 1414.69 L734.705 1412.87 Q734.708 1415.51 733.491 1417.52 Q732.274 1419.54 729.788 1420.97 Q725.659 1423.35 721.316 1421.67 Q716.973 1419.98 713.975 1414.78 Q710.966 1409.57 711.675 1404.97 Q712.383 1400.36 716.513 1397.98 Q718.999 1396.54 721.35 1396.49 Q723.701 1396.45 725.99 1397.77 L724.022 1394.36 L727.711 1392.23 L739.065 1411.9 Z" fill="#000000" fill-rule="nonzero" fill-opacity="1" /><path clip-path="url(#clip410)" d="M758.817 1406.99 Q759.568 1411.9 758.791 1413.98 Q758.013 1416.06 755.527 1417.5 L752.581 1419.2 L750.798 1416.11 L752.963 1414.86 Q754.487 1413.98 754.912 1412.77 Q755.337 1411.57 754.809 1408.29 L754.498 1406.22 L732.662 1389.37 L736.572 1387.12 L753.727 1400.63 L750.604 1379.02 L754.513 1376.76 L758.817 1406.99 Z" fill="#000000" fill-rule="nonzero" fill-opacity="1" /><path clip-path="url(#clip410)" d="M774.192 1390.84 L781.067 1402.75 L777.358 1404.89 L759.465 1373.9 L763.174 1371.76 L765.141 1375.17 Q765.147 1372.49 766.355 1370.51 Q767.572 1368.5 770.038 1367.07 Q774.127 1364.71 778.548 1366.49 Q782.989 1368.26 786.045 1373.55 Q789.1 1378.84 788.409 1383.57 Q787.738 1388.29 783.649 1390.65 Q781.183 1392.07 778.843 1392.14 Q776.512 1392.18 774.192 1390.84 M782.216 1375.76 Q779.866 1371.69 776.851 1370.36 Q773.845 1368.99 770.918 1370.68 Q767.991 1372.37 767.65 1375.67 Q767.317 1378.94 769.667 1383.01 Q772.016 1387.07 775.023 1388.44 Q778.038 1389.77 780.964 1388.08 Q783.891 1386.39 784.224 1383.13 Q784.565 1379.83 782.216 1375.76 Z" fill="#000000" fill-rule="nonzero" fill-opacity="1" /><path clip-path="url(#clip410)" d="M800.361 1351.17 L802.375 1354.66 Q800.349 1354.76 798.433 1355.33 Q796.518 1355.9 794.714 1356.94 Q791.967 1358.53 791.07 1360.17 Q790.193 1361.8 791.165 1363.48 Q791.906 1364.77 793.317 1364.94 Q794.716 1365.1 798.064 1364.04 L799.489 1363.6 Q803.905 1362.17 806.44 1362.76 Q808.983 1363.33 810.569 1366.07 Q812.374 1369.2 810.942 1372.46 Q809.529 1375.71 805.199 1378.21 Q803.395 1379.25 801.222 1380.02 Q799.081 1380.8 796.511 1381.35 L794.312 1377.54 Q796.97 1377.43 799.267 1376.82 Q801.552 1376.2 803.497 1375.07 Q806.103 1373.57 806.997 1371.88 Q807.88 1370.16 806.942 1368.54 Q806.074 1367.04 804.589 1366.83 Q803.123 1366.6 799.267 1367.84 L797.811 1368.28 Q793.966 1369.54 791.586 1368.93 Q789.194 1368.31 787.69 1365.7 Q785.861 1362.54 787.111 1359.52 Q788.361 1356.5 792.49 1354.11 Q794.535 1352.93 796.513 1352.19 Q798.491 1351.45 800.361 1351.17 Z" fill="#000000" fill-rule="nonzero" fill-opacity="1" /><path clip-path="url(#clip410)" d="M814.522 1360.24 L806.675 1346.64 L810.364 1344.51 L818.13 1357.97 Q819.97 1361.15 822.139 1362.04 Q824.296 1362.9 826.782 1361.47 Q829.769 1359.75 830.394 1356.85 Q831.038 1353.93 829.14 1350.65 L821.79 1337.92 L825.479 1335.79 L838.442 1358.24 L834.753 1360.37 L832.763 1356.92 Q832.6 1359.74 831.395 1361.77 Q830.198 1363.77 827.852 1365.13 Q823.983 1367.36 820.589 1366.11 Q817.196 1364.87 814.522 1360.24 M815.644 1340.74 L815.644 1340.74 Z" fill="#000000" fill-rule="nonzero" fill-opacity="1" /><path clip-path="url(#clip410)" d="M853.046 1325.62 Q852.994 1322.33 854.236 1320.04 Q855.477 1317.75 858.083 1316.24 Q861.592 1314.22 864.92 1315.58 Q868.236 1316.93 870.852 1321.46 L878.676 1335.01 L874.967 1337.15 L867.213 1323.72 Q865.349 1320.49 863.304 1319.59 Q861.258 1318.68 858.913 1320.04 Q856.046 1321.69 855.482 1324.56 Q854.917 1327.42 856.816 1330.71 L864.142 1343.4 L860.433 1345.54 L852.679 1332.11 Q850.804 1328.86 848.77 1327.98 Q846.724 1327.08 844.339 1328.45 Q841.512 1330.09 840.959 1332.97 Q840.395 1335.84 842.282 1339.1 L849.608 1351.79 L845.899 1353.93 L832.936 1331.48 L836.645 1329.34 L838.659 1332.83 Q838.73 1330.03 839.927 1328.03 Q841.124 1326.03 843.549 1324.63 Q845.995 1323.22 848.417 1323.48 Q850.858 1323.73 853.046 1325.62 Z" fill="#000000" fill-rule="nonzero" fill-opacity="1" /><path clip-path="url(#clip410)" d="M1029.89 1378.23 L1031.88 1381.68 Q1029.82 1381.72 1027.99 1382.22 Q1026.17 1382.68 1024.57 1383.6 Q1020.98 1385.68 1020.32 1389.11 Q1019.64 1392.52 1022.01 1396.63 Q1024.38 1400.74 1027.69 1401.88 Q1030.98 1403 1034.57 1400.92 Q1036.17 1400 1037.49 1398.67 Q1038.82 1397.32 1039.89 1395.55 L1041.86 1398.96 Q1040.73 1400.58 1039.27 1401.9 Q1037.84 1403.21 1035.97 1404.28 Q1030.9 1407.21 1026.07 1405.75 Q1021.25 1404.29 1018.12 1398.87 Q1014.95 1393.38 1016.14 1388.5 Q1017.35 1383.6 1022.6 1380.57 Q1024.31 1379.59 1026.14 1379.01 Q1027.96 1378.41 1029.89 1378.23 Z" fill="#000000" fill-rule="nonzero" fill-opacity="1" /><path clip-path="url(#clip410)" d="M1052.46 1378.94 Q1047.99 1381.52 1046.85 1383.54 Q1045.72 1385.56 1047.14 1388.03 Q1048.28 1389.99 1050.23 1390.41 Q1052.19 1390.8 1054.42 1389.52 Q1057.49 1387.75 1058.08 1384.52 Q1058.68 1381.26 1056.6 1377.65 L1056.12 1376.83 L1052.46 1378.94 M1058.93 1373.17 L1066.33 1385.98 L1062.64 1388.11 L1060.67 1384.7 Q1060.59 1387.48 1059.27 1389.55 Q1057.94 1391.6 1055.22 1393.17 Q1051.77 1395.16 1048.61 1394.42 Q1045.47 1393.64 1043.59 1390.4 Q1041.4 1386.61 1042.82 1383.22 Q1044.25 1379.83 1049.29 1376.92 L1054.46 1373.94 L1054.25 1373.58 Q1052.78 1371.03 1050.3 1370.62 Q1047.82 1370.18 1044.8 1371.93 Q1042.87 1373.04 1041.31 1374.55 Q1039.76 1376.07 1038.6 1377.96 L1036.64 1374.55 Q1038.21 1372.6 1039.89 1371.12 Q1041.57 1369.62 1043.37 1368.58 Q1048.24 1365.77 1052.11 1366.9 Q1055.97 1368.04 1058.93 1373.17 Z" fill="#000000" fill-rule="nonzero" fill-opacity="1" /><path clip-path="url(#clip410)" d="M1055.92 1350.4 L1059.61 1348.27 L1077.62 1379.47 L1073.93 1381.6 L1055.92 1350.4 Z" fill="#000000" fill-rule="nonzero" fill-opacity="1" /><path clip-path="url(#clip410)" d="M1089.03 1344.09 L1091.02 1347.54 Q1088.96 1347.58 1087.13 1348.07 Q1085.31 1348.53 1083.71 1349.46 Q1080.12 1351.53 1079.45 1354.96 Q1078.78 1358.37 1081.15 1362.48 Q1083.52 1366.59 1086.83 1367.73 Q1090.12 1368.85 1093.71 1366.78 Q1095.31 1365.86 1096.63 1364.53 Q1097.96 1363.18 1099.03 1361.41 L1100.99 1364.82 Q1099.87 1366.43 1098.41 1367.75 Q1096.98 1369.06 1095.11 1370.14 Q1090.04 1373.07 1085.21 1371.61 Q1080.38 1370.14 1077.26 1364.73 Q1074.09 1359.24 1075.28 1354.35 Q1076.49 1349.46 1081.74 1346.43 Q1083.44 1345.44 1085.28 1344.87 Q1087.1 1344.27 1089.03 1344.09 Z" fill="#000000" fill-rule="nonzero" fill-opacity="1" /><path clip-path="url(#clip410)" d="M1094.94 1339.53 L1098.63 1337.4 L1111.59 1359.85 L1107.91 1361.98 L1094.94 1339.53 M1089.9 1330.78 L1093.59 1328.66 L1096.28 1333.33 L1092.59 1335.46 L1089.9 1330.78 Z" fill="#000000" fill-rule="nonzero" fill-opacity="1" /><path clip-path="url(#clip410)" d="M1106.32 1324.46 L1110 1330.83 L1117.6 1326.45 L1119.25 1329.31 L1111.65 1333.7 L1118.69 1345.89 Q1120.28 1348.63 1121.47 1348.99 Q1122.68 1349.33 1124.99 1348 L1128.78 1345.81 L1130.56 1348.9 L1126.77 1351.09 Q1122.5 1353.55 1119.96 1352.91 Q1117.41 1352.24 1114.98 1348.03 L1107.94 1335.84 L1105.24 1337.4 L1103.58 1334.54 L1106.29 1332.97 L1102.61 1326.6 L1106.32 1324.46 Z" fill="#000000" fill-rule="nonzero" fill-opacity="1" /><path clip-path="url(#clip410)" d="M1147.6 1322.86 L1148.64 1324.67 L1131.68 1334.46 Q1134.12 1338.13 1137.33 1338.95 Q1140.54 1339.74 1144.2 1337.63 Q1146.33 1336.4 1148.01 1334.73 Q1149.72 1333.05 1151.08 1330.88 L1153.09 1334.37 Q1151.6 1336.35 1149.76 1338 Q1147.93 1339.64 1145.79 1340.88 Q1140.42 1343.98 1135.46 1342.67 Q1130.53 1341.35 1127.45 1336.02 Q1124.27 1330.51 1125.37 1325.57 Q1126.49 1320.59 1131.54 1317.68 Q1136.07 1315.06 1140.38 1316.47 Q1144.71 1317.85 1147.6 1322.86 M1143.29 1323.91 Q1141.5 1320.91 1138.79 1320.06 Q1136.11 1319.21 1133.38 1320.78 Q1130.3 1322.56 1129.44 1325.38 Q1128.6 1328.19 1130.15 1331.52 L1143.29 1323.91 Z" fill="#000000" fill-rule="nonzero" fill-opacity="1" /><path clip-path="url(#clip410)" d="M1329.85 1356.32 L1332.31 1360.59 Q1329.17 1359.87 1326.3 1360.27 Q1323.45 1360.66 1320.84 1362.16 Q1315.71 1365.12 1314.8 1369.84 Q1313.88 1374.55 1317.31 1380.48 Q1320.72 1386.39 1325.27 1387.97 Q1329.8 1389.52 1334.93 1386.56 Q1337.54 1385.05 1339.3 1382.78 Q1341.08 1380.49 1342.02 1377.41 L1344.47 1381.64 Q1343.17 1384.31 1341.21 1386.41 Q1339.26 1388.5 1336.61 1390.02 Q1329.81 1393.95 1323.51 1392.05 Q1317.19 1390.14 1313.04 1382.95 Q1308.87 1375.73 1310.38 1369.32 Q1311.89 1362.9 1318.68 1358.97 Q1321.37 1357.42 1324.15 1356.78 Q1326.94 1356.1 1329.85 1356.32 Z" fill="#000000" fill-rule="nonzero" fill-opacity="1" /><path clip-path="url(#clip410)" d="M1342.58 1368.61 L1353.39 1362.37 L1355.29 1365.66 L1344.48 1371.9 L1342.58 1368.61 Z" fill="#000000" fill-rule="nonzero" fill-opacity="1" /><path clip-path="url(#clip410)" d="M1368.1 1332.47 L1370.38 1336.42 Q1367.43 1336.65 1365.08 1337.29 Q1362.72 1337.93 1360.81 1339.03 Q1357.51 1340.94 1356.44 1343.26 Q1355.4 1345.58 1356.77 1347.94 Q1357.91 1349.93 1359.68 1350.27 Q1361.47 1350.58 1365.15 1349.28 L1367.89 1348.36 Q1372.92 1346.61 1376.32 1347.56 Q1379.74 1348.47 1381.84 1352.12 Q1384.36 1356.47 1382.72 1360.41 Q1381.11 1364.33 1375.48 1367.58 Q1373.36 1368.81 1370.67 1369.72 Q1368.01 1370.61 1364.9 1371.15 L1362.49 1366.98 Q1365.76 1366.94 1368.53 1366.28 Q1371.3 1365.61 1373.58 1364.29 Q1377.05 1362.29 1378.15 1359.84 Q1379.25 1357.39 1377.79 1354.86 Q1376.51 1352.66 1374.43 1352.2 Q1372.37 1351.74 1368.93 1352.9 L1366.18 1353.84 Q1361.13 1355.55 1358 1354.8 Q1354.86 1354.04 1352.88 1350.61 Q1350.59 1346.64 1352.06 1342.75 Q1353.54 1338.84 1358.46 1336.01 Q1360.56 1334.79 1362.96 1333.91 Q1365.37 1333.03 1368.1 1332.47 Z" fill="#000000" fill-rule="nonzero" fill-opacity="1" /><path clip-path="url(#clip410)" d="M1383.46 1345.01 L1394.27 1338.78 L1396.16 1342.06 L1385.36 1348.3 L1383.46 1345.01 Z" fill="#000000" fill-rule="nonzero" fill-opacity="1" /><path clip-path="url(#clip410)" d="M1390.46 1318.25 L1394.51 1315.91 L1401.59 1328.18 L1416.31 1319.69 L1409.23 1307.42 L1413.27 1305.08 L1430.55 1335.01 L1426.51 1337.35 L1418.28 1323.09 L1403.56 1331.59 L1411.79 1345.84 L1407.74 1348.18 L1390.46 1318.25 Z" fill="#000000" fill-rule="nonzero" fill-opacity="1" /><path clip-path="url(#clip410)" d="M1661.48 1324.17 L1663.94 1328.44 Q1660.8 1327.71 1657.93 1328.11 Q1655.08 1328.5 1652.47 1330.01 Q1647.34 1332.97 1646.43 1337.69 Q1645.51 1342.39 1648.94 1348.33 Q1652.35 1354.24 1656.9 1355.81 Q1661.43 1357.37 1666.56 1354.4 Q1669.17 1352.9 1670.93 1350.63 Q1672.71 1348.34 1673.65 1345.26 L1676.1 1349.49 Q1674.8 1352.16 1672.83 1354.26 Q1670.89 1356.34 1668.24 1357.87 Q1661.44 1361.8 1655.14 1359.9 Q1648.82 1357.99 1644.67 1350.79 Q1640.5 1343.58 1642.01 1337.17 Q1643.52 1330.74 1650.31 1326.82 Q1653 1325.27 1655.78 1324.62 Q1658.57 1323.95 1661.48 1324.17 Z" fill="#000000" fill-rule="nonzero" fill-opacity="1" /><path clip-path="url(#clip410)" d="M1666.4 1318.25 L1670.45 1315.91 L1677.53 1328.18 L1692.25 1319.69 L1685.16 1307.42 L1689.21 1305.08 L1706.49 1335.01 L1702.44 1337.35 L1694.22 1323.09 L1679.5 1331.59 L1687.73 1345.84 L1683.68 1348.18 L1666.4 1318.25 Z" fill="#000000" fill-rule="nonzero" fill-opacity="1" /><path clip-path="url(#clip410)" d="M1914.67 1339.54 L1917.78 1357.61 L1928.79 1351.26 L1914.67 1339.54 M1910.09 1336.87 L1914.68 1334.22 L1943.36 1357.57 L1939.15 1360 L1931.99 1353.89 L1918.5 1361.68 L1920.21 1370.94 L1915.94 1373.4 L1910.09 1336.87 Z" fill="#000000" fill-rule="nonzero" fill-opacity="1" /><path clip-path="url(#clip410)" d="M1930.45 1325.11 L1947.65 1315.18 L1949.62 1318.59 L1936.47 1326.18 L1941.56 1335.01 L1953.43 1328.15 L1955.4 1331.56 L1943.53 1338.41 L1951.78 1352.71 L1947.73 1355.04 L1930.45 1325.11 Z" fill="#000000" fill-rule="nonzero" fill-opacity="1" /><path clip-path="url(#clip410)" d="M1958.19 1310.57 L1961.87 1316.94 L1969.47 1312.56 L1971.13 1315.42 L1963.53 1319.81 L1970.57 1332 Q1972.15 1334.75 1973.34 1335.1 Q1974.56 1335.44 1976.86 1334.11 L1980.65 1331.92 L1982.43 1335.01 L1978.64 1337.2 Q1974.37 1339.66 1971.84 1339.02 Q1969.29 1338.35 1966.86 1334.14 L1959.82 1321.95 L1957.11 1323.51 L1955.46 1320.65 L1958.16 1319.09 L1954.48 1312.71 L1958.19 1310.57 Z" fill="#000000" fill-rule="nonzero" fill-opacity="1" /><path clip-path="url(#clip410)" d="M2169.22 1351.89 L2172.33 1369.96 L2183.34 1363.61 L2169.22 1351.89 M2164.63 1349.22 L2169.23 1346.57 L2197.91 1369.92 L2193.7 1372.35 L2186.54 1366.24 L2173.05 1374.03 L2174.76 1383.29 L2170.49 1385.75 L2164.63 1349.22 Z" fill="#000000" fill-rule="nonzero" fill-opacity="1" /><path clip-path="url(#clip410)" d="M2185 1337.46 L2202.2 1327.53 L2204.17 1330.94 L2191.02 1338.53 L2196.11 1347.36 L2207.98 1340.5 L2209.95 1343.91 L2198.08 1350.76 L2206.33 1365.06 L2202.28 1367.39 L2185 1337.46 Z" fill="#000000" fill-rule="nonzero" fill-opacity="1" /><path clip-path="url(#clip410)" d="M2232.74 1325.62 Q2232.69 1322.33 2233.93 1320.04 Q2235.17 1317.75 2237.78 1316.24 Q2241.29 1314.22 2244.62 1315.58 Q2247.93 1316.93 2250.55 1321.46 L2258.37 1335.01 L2254.66 1337.15 L2246.91 1323.72 Q2245.05 1320.49 2243 1319.59 Q2240.96 1318.68 2238.61 1320.04 Q2235.74 1321.69 2235.18 1324.56 Q2234.61 1327.42 2236.51 1330.71 L2243.84 1343.4 L2240.13 1345.54 L2232.38 1332.11 Q2230.5 1328.86 2228.47 1327.98 Q2226.42 1327.08 2224.04 1328.45 Q2221.21 1330.09 2220.66 1332.97 Q2220.09 1335.84 2221.98 1339.1 L2229.31 1351.79 L2225.6 1353.93 L2212.63 1331.48 L2216.34 1329.34 L2218.36 1332.83 Q2218.43 1330.03 2219.62 1328.03 Q2220.82 1326.03 2223.25 1324.63 Q2225.69 1323.22 2228.11 1323.48 Q2230.56 1323.73 2232.74 1325.62 Z" fill="#000000" fill-rule="nonzero" fill-opacity="1" /><path clip-path="url(#clip410)" d="M2443.74 1347.39 L2460.94 1337.46 L2462.91 1340.87 L2449.76 1348.46 L2454.85 1357.29 L2466.72 1350.43 L2468.69 1353.84 L2456.82 1360.69 L2465.07 1374.99 L2461.02 1377.32 L2443.74 1347.39 Z" fill="#000000" fill-rule="nonzero" fill-opacity="1" /><path clip-path="url(#clip410)" d="M2467.36 1333.76 L2471.41 1331.42 L2478.49 1343.69 L2493.2 1335.2 L2486.12 1322.93 L2490.17 1320.59 L2507.45 1350.52 L2503.4 1352.86 L2495.17 1338.6 L2480.46 1347.1 L2488.69 1361.35 L2484.64 1363.69 L2467.36 1333.76 Z" fill="#000000" fill-rule="nonzero" fill-opacity="1" /><path clip-path="url(#clip410)" d="M2518.82 1322.44 Q2522.09 1321.38 2524.84 1322.41 Q2527.62 1323.42 2529.29 1326.31 Q2531.85 1330.74 2530.2 1334.93 Q2528.55 1339.11 2522.94 1342.35 Q2521.06 1343.44 2518.83 1344.22 Q2516.64 1345 2514.09 1345.49 L2511.83 1341.58 Q2514.08 1341.59 2516.37 1340.93 Q2518.67 1340.27 2520.85 1339.01 Q2524.66 1336.81 2525.78 1334.16 Q2526.92 1331.5 2525.26 1328.64 Q2523.73 1325.99 2521.01 1325.58 Q2518.3 1325.14 2514.99 1327.05 L2511.5 1329.07 L2509.58 1325.74 L2513.23 1323.63 Q2516.22 1321.91 2517.12 1319.81 Q2518.01 1317.69 2516.71 1315.45 Q2515.38 1313.14 2513.03 1312.87 Q2510.69 1312.57 2507.64 1314.32 Q2505.98 1315.28 2504.28 1316.75 Q2502.59 1318.21 2500.74 1320.29 L2498.66 1316.68 Q2500.59 1314.71 2502.41 1313.23 Q2504.25 1311.74 2506.04 1310.71 Q2510.65 1308.05 2514.55 1308.6 Q2518.44 1309.13 2520.5 1312.7 Q2521.93 1315.19 2521.5 1317.73 Q2521.07 1320.26 2518.82 1322.44 Z" fill="#000000" fill-rule="nonzero" fill-opacity="1" /><path clip-path="url(#clip410)" d="M2682.04 1379.1 L2685.73 1376.97 L2700.46 1391.83 L2694.93 1371.65 L2699.28 1369.14 L2714.01 1384 L2708.48 1363.83 L2712.17 1361.7 L2719.26 1387.54 L2714.91 1390.06 L2699.45 1374.44 L2705.23 1395.65 L2700.88 1398.16 L2682.04 1379.1 Z" fill="#000000" fill-rule="nonzero" fill-opacity="1" /><path clip-path="url(#clip410)" d="M2734.41 1363.75 Q2729.94 1366.33 2728.81 1368.35 Q2727.68 1370.36 2729.1 1372.83 Q2730.23 1374.79 2732.19 1375.22 Q2734.15 1375.61 2736.38 1374.32 Q2739.44 1372.55 2740.04 1369.32 Q2740.64 1366.06 2738.56 1362.45 L2738.08 1361.63 L2734.41 1363.75 M2740.89 1357.98 L2748.29 1370.79 L2744.6 1372.92 L2742.63 1369.51 Q2742.55 1372.28 2741.23 1374.35 Q2739.9 1376.4 2737.18 1377.98 Q2733.73 1379.97 2730.57 1379.22 Q2727.42 1378.45 2725.55 1375.2 Q2723.36 1371.41 2724.78 1368.03 Q2726.21 1364.63 2731.24 1361.73 L2736.42 1358.74 L2736.21 1358.38 Q2734.74 1355.84 2732.26 1355.42 Q2729.78 1354.98 2726.75 1356.73 Q2724.83 1357.84 2723.27 1359.35 Q2721.71 1360.87 2720.56 1362.76 L2718.59 1359.36 Q2720.17 1357.4 2721.85 1355.92 Q2723.53 1354.42 2725.33 1353.38 Q2730.2 1350.57 2734.06 1351.71 Q2737.93 1352.84 2740.89 1357.98 Z" fill="#000000" fill-rule="nonzero" fill-opacity="1" /><path clip-path="url(#clip410)" d="M2742.89 1335.47 L2746.57 1341.84 L2754.17 1337.45 L2755.82 1340.32 L2748.23 1344.71 L2755.26 1356.9 Q2756.85 1359.64 2758.04 1360 Q2759.25 1360.34 2761.56 1359.01 L2765.35 1356.82 L2767.13 1359.91 L2763.34 1362.09 Q2759.07 1364.56 2756.53 1363.91 Q2753.98 1363.25 2751.55 1359.04 L2744.52 1346.85 L2741.81 1348.41 L2740.16 1345.54 L2742.86 1343.98 L2739.18 1337.61 L2742.89 1335.47 Z" fill="#000000" fill-rule="nonzero" fill-opacity="1" /><path clip-path="url(#clip410)" d="M2784.17 1333.87 L2785.22 1335.67 L2768.26 1345.46 Q2770.7 1349.13 2773.9 1349.96 Q2777.11 1350.75 2780.78 1348.63 Q2782.9 1347.41 2784.59 1345.74 Q2786.29 1344.06 2787.65 1341.88 L2789.67 1345.37 Q2788.17 1347.36 2786.34 1349 Q2784.51 1350.65 2782.36 1351.89 Q2776.99 1354.99 2772.04 1353.68 Q2767.1 1352.36 2764.02 1347.03 Q2760.84 1341.51 2761.95 1336.57 Q2763.06 1331.6 2768.11 1328.68 Q2772.64 1326.07 2776.96 1327.48 Q2781.28 1328.86 2784.17 1333.87 M2779.86 1334.92 Q2778.07 1331.91 2775.37 1331.07 Q2772.68 1330.21 2769.95 1331.79 Q2766.87 1333.57 2766.01 1336.39 Q2765.17 1339.2 2766.72 1342.53 L2779.86 1334.92 Z" fill="#000000" fill-rule="nonzero" fill-opacity="1" /><path clip-path="url(#clip410)" d="M2799.28 1316.01 Q2798.45 1316 2797.62 1316.27 Q2796.79 1316.51 2795.91 1317.02 Q2792.78 1318.82 2792.28 1321.84 Q2791.78 1324.83 2793.98 1328.63 L2800.81 1340.46 L2797.1 1342.6 L2784.14 1320.15 L2787.85 1318.01 L2789.86 1321.5 Q2789.84 1318.78 2791.14 1316.72 Q2792.43 1314.64 2795.09 1313.1 Q2795.47 1312.88 2795.97 1312.68 Q2796.45 1312.45 2797.07 1312.23 L2799.28 1316.01 Z" fill="#000000" fill-rule="nonzero" fill-opacity="1" /><path clip-path="url(#clip410)" d="M2991.3 1359.86 L2995.21 1357.6 L3013.1 1372.4 L3009.24 1349.5 L3013.15 1347.25 L3017.69 1374.56 L3012.68 1377.45 L2991.3 1359.86 Z" fill="#000000" fill-rule="nonzero" fill-opacity="1" /><path clip-path="url(#clip410)" d="M3028.43 1341.87 Q3025.47 1343.58 3025.09 1346.9 Q3024.69 1350.2 3027.02 1354.23 Q3029.34 1358.26 3032.39 1359.6 Q3035.45 1360.91 3038.43 1359.19 Q3041.38 1357.49 3041.76 1354.17 Q3042.14 1350.85 3039.83 1346.84 Q3037.53 1342.85 3034.46 1341.52 Q3031.38 1340.17 3028.43 1341.87 M3026.63 1338.74 Q3031.44 1335.96 3035.99 1337.5 Q3040.54 1339.05 3043.74 1344.58 Q3046.92 1350.09 3045.99 1354.83 Q3045.05 1359.54 3040.24 1362.32 Q3035.41 1365.11 3030.86 1363.56 Q3026.31 1361.99 3023.13 1356.48 Q3019.94 1350.94 3020.86 1346.24 Q3021.8 1341.53 3026.63 1338.74 Z" fill="#000000" fill-rule="nonzero" fill-opacity="1" /><path clip-path="url(#clip410)" d="M3043.36 1329.8 L3047.05 1327.67 L3060.01 1350.13 L3056.32 1352.26 L3043.36 1329.8 M3038.31 1321.06 L3042 1318.93 L3044.7 1323.6 L3041.01 1325.73 L3038.31 1321.06 Z" fill="#000000" fill-rule="nonzero" fill-opacity="1" /><path clip-path="url(#clip410)" d="M3071.51 1318.1 L3064.49 1305.95 L3068.18 1303.82 L3086.19 1335.01 L3082.5 1337.14 L3080.56 1333.77 Q3080.55 1336.45 3079.34 1338.46 Q3078.13 1340.44 3075.64 1341.88 Q3071.57 1344.23 3067.13 1342.46 Q3062.71 1340.68 3059.65 1335.39 Q3056.6 1330.1 3057.27 1325.38 Q3057.96 1320.65 3062.03 1318.3 Q3064.52 1316.87 3066.85 1316.83 Q3069.19 1316.76 3071.51 1318.1 M3063.46 1333.19 Q3065.81 1337.26 3068.82 1338.62 Q3071.83 1339.96 3074.76 1338.27 Q3077.69 1336.58 3078.04 1333.3 Q3078.38 1330 3076.03 1325.93 Q3073.68 1321.86 3070.67 1320.53 Q3067.64 1319.18 3064.72 1320.87 Q3061.79 1322.56 3061.45 1325.86 Q3061.11 1329.12 3063.46 1333.19 Z" fill="#000000" fill-rule="nonzero" fill-opacity="1" /><polyline clip-path="url(#clip410)" style="stroke:#000000; stroke-linecap:round; stroke-linejoin:round; stroke-width:4; stroke-opacity:1; fill:none" points="326.136,1270.08 326.136,136.684 "/>
<polyline clip-path="url(#clip410)" style="stroke:#000000; stroke-linecap:round; stroke-linejoin:round; stroke-width:4; stroke-opacity:1; fill:none" points="3345.51,1270.08 3345.51,136.684 "/>
<polyline clip-path="url(#clip410)" style="stroke:#000000; stroke-linecap:round; stroke-linejoin:round; stroke-width:4; stroke-opacity:1; fill:none" points="326.136,1270.08 345.034,1270.08 "/>
<polyline clip-path="url(#clip410)" style="stroke:#000000; stroke-linecap:round; stroke-linejoin:round; stroke-width:4; stroke-opacity:1; fill:none" points="326.136,1085.18 345.034,1085.18 "/>
<polyline clip-path="url(#clip410)" style="stroke:#000000; stroke-linecap:round; stroke-linejoin:round; stroke-width:4; stroke-opacity:1; fill:none" points="326.136,900.281 345.034,900.281 "/>
<polyline clip-path="url(#clip410)" style="stroke:#000000; stroke-linecap:round; stroke-linejoin:round; stroke-width:4; stroke-opacity:1; fill:none" points="326.136,715.382 345.034,715.382 "/>
<polyline clip-path="url(#clip410)" style="stroke:#000000; stroke-linecap:round; stroke-linejoin:round; stroke-width:4; stroke-opacity:1; fill:none" points="326.136,530.484 345.034,530.484 "/>
<polyline clip-path="url(#clip410)" style="stroke:#000000; stroke-linecap:round; stroke-linejoin:round; stroke-width:4; stroke-opacity:1; fill:none" points="326.136,345.585 345.034,345.585 "/>
<polyline clip-path="url(#clip410)" style="stroke:#000000; stroke-linecap:round; stroke-linejoin:round; stroke-width:4; stroke-opacity:1; fill:none" points="326.136,160.687 345.034,160.687 "/>
<polyline clip-path="url(#clip410)" style="stroke:#000000; stroke-linecap:round; stroke-linejoin:round; stroke-width:4; stroke-opacity:1; fill:none" points="3345.51,1270.08 3326.61,1270.08 "/>
<polyline clip-path="url(#clip410)" style="stroke:#000000; stroke-linecap:round; stroke-linejoin:round; stroke-width:4; stroke-opacity:1; fill:none" points="3345.51,1085.18 3326.61,1085.18 "/>
<polyline clip-path="url(#clip410)" style="stroke:#000000; stroke-linecap:round; stroke-linejoin:round; stroke-width:4; stroke-opacity:1; fill:none" points="3345.51,900.281 3326.61,900.281 "/>
<polyline clip-path="url(#clip410)" style="stroke:#000000; stroke-linecap:round; stroke-linejoin:round; stroke-width:4; stroke-opacity:1; fill:none" points="3345.51,715.382 3326.61,715.382 "/>
<polyline clip-path="url(#clip410)" style="stroke:#000000; stroke-linecap:round; stroke-linejoin:round; stroke-width:4; stroke-opacity:1; fill:none" points="3345.51,530.484 3326.61,530.484 "/>
<polyline clip-path="url(#clip410)" style="stroke:#000000; stroke-linecap:round; stroke-linejoin:round; stroke-width:4; stroke-opacity:1; fill:none" points="3345.51,345.585 3326.61,345.585 "/>
<polyline clip-path="url(#clip410)" style="stroke:#000000; stroke-linecap:round; stroke-linejoin:round; stroke-width:4; stroke-opacity:1; fill:none" points="3345.51,160.687 3326.61,160.687 "/>
<path clip-path="url(#clip410)" d="M217.36 1255.88 Q213.749 1255.88 211.921 1259.44 Q210.115 1262.98 210.115 1270.11 Q210.115 1277.22 211.921 1280.78 Q213.749 1284.33 217.36 1284.33 Q220.995 1284.33 222.8 1280.78 Q224.629 1277.22 224.629 1270.11 Q224.629 1262.98 222.8 1259.44 Q220.995 1255.88 217.36 1255.88 M217.36 1252.17 Q223.171 1252.17 226.226 1256.78 Q229.305 1261.36 229.305 1270.11 Q229.305 1278.84 226.226 1283.45 Q223.171 1288.03 217.36 1288.03 Q211.55 1288.03 208.472 1283.45 Q205.416 1278.84 205.416 1270.11 Q205.416 1261.36 208.472 1256.78 Q211.55 1252.17 217.36 1252.17 Z" fill="#000000" fill-rule="nonzero" fill-opacity="1" /><path clip-path="url(#clip410)" d="M237.522 1281.48 L242.407 1281.48 L242.407 1287.36 L237.522 1287.36 L237.522 1281.48 Z" fill="#000000" fill-rule="nonzero" fill-opacity="1" /><path clip-path="url(#clip410)" d="M262.592 1255.88 Q258.981 1255.88 257.152 1259.44 Q255.346 1262.98 255.346 1270.11 Q255.346 1277.22 257.152 1280.78 Q258.981 1284.33 262.592 1284.33 Q266.226 1284.33 268.031 1280.78 Q269.86 1277.22 269.86 1270.11 Q269.86 1262.98 268.031 1259.44 Q266.226 1255.88 262.592 1255.88 M262.592 1252.17 Q268.402 1252.17 271.457 1256.78 Q274.536 1261.36 274.536 1270.11 Q274.536 1278.84 271.457 1283.45 Q268.402 1288.03 262.592 1288.03 Q256.781 1288.03 253.703 1283.45 Q250.647 1278.84 250.647 1270.11 Q250.647 1261.36 253.703 1256.78 Q256.781 1252.17 262.592 1252.17 Z" fill="#000000" fill-rule="nonzero" fill-opacity="1" /><path clip-path="url(#clip410)" d="M218.587 1070.98 Q214.976 1070.98 213.147 1074.54 Q211.342 1078.08 211.342 1085.21 Q211.342 1092.32 213.147 1095.89 Q214.976 1099.43 218.587 1099.43 Q222.221 1099.43 224.027 1095.89 Q225.856 1092.32 225.856 1085.21 Q225.856 1078.08 224.027 1074.54 Q222.221 1070.98 218.587 1070.98 M218.587 1067.27 Q224.397 1067.27 227.453 1071.88 Q230.532 1076.46 230.532 1085.21 Q230.532 1093.94 227.453 1098.55 Q224.397 1103.13 218.587 1103.13 Q212.777 1103.13 209.698 1098.55 Q206.643 1093.94 206.643 1085.21 Q206.643 1076.46 209.698 1071.88 Q212.777 1067.27 218.587 1067.27 Z" fill="#000000" fill-rule="nonzero" fill-opacity="1" /><path clip-path="url(#clip410)" d="M238.749 1096.58 L243.633 1096.58 L243.633 1102.46 L238.749 1102.46 L238.749 1096.58 Z" fill="#000000" fill-rule="nonzero" fill-opacity="1" /><path clip-path="url(#clip410)" d="M254.629 1098.52 L262.268 1098.52 L262.268 1072.16 L253.957 1073.83 L253.957 1069.57 L262.221 1067.9 L266.897 1067.9 L266.897 1098.52 L274.536 1098.52 L274.536 1102.46 L254.629 1102.46 L254.629 1098.52 Z" fill="#000000" fill-rule="nonzero" fill-opacity="1" /><path clip-path="url(#clip410)" d="M218.958 886.08 Q215.346 886.08 213.518 889.644 Q211.712 893.186 211.712 900.316 Q211.712 907.422 213.518 910.987 Q215.346 914.529 218.958 914.529 Q222.592 914.529 224.397 910.987 Q226.226 907.422 226.226 900.316 Q226.226 893.186 224.397 889.644 Q222.592 886.08 218.958 886.08 M218.958 882.376 Q224.768 882.376 227.823 886.982 Q230.902 891.566 230.902 900.316 Q230.902 909.042 227.823 913.649 Q224.768 918.232 218.958 918.232 Q213.147 918.232 210.069 913.649 Q207.013 909.042 207.013 900.316 Q207.013 891.566 210.069 886.982 Q213.147 882.376 218.958 882.376 Z" fill="#000000" fill-rule="nonzero" fill-opacity="1" /><path clip-path="url(#clip410)" d="M239.119 911.681 L244.004 911.681 L244.004 917.561 L239.119 917.561 L239.119 911.681 Z" fill="#000000" fill-rule="nonzero" fill-opacity="1" /><path clip-path="url(#clip410)" d="M258.217 913.626 L274.536 913.626 L274.536 917.561 L252.592 917.561 L252.592 913.626 Q255.254 910.871 259.837 906.242 Q264.443 901.589 265.624 900.246 Q267.869 897.723 268.749 895.987 Q269.652 894.228 269.652 892.538 Q269.652 889.783 267.707 888.047 Q265.786 886.311 262.684 886.311 Q260.485 886.311 258.031 887.075 Q255.601 887.839 252.823 889.39 L252.823 884.668 Q255.647 883.533 258.101 882.955 Q260.555 882.376 262.592 882.376 Q267.962 882.376 271.156 885.061 Q274.351 887.746 274.351 892.237 Q274.351 894.367 273.541 896.288 Q272.754 898.186 270.647 900.779 Q270.068 901.45 266.967 904.667 Q263.865 907.862 258.217 913.626 Z" fill="#000000" fill-rule="nonzero" fill-opacity="1" /><path clip-path="url(#clip410)" d="M218.008 701.181 Q214.397 701.181 212.569 704.746 Q210.763 708.288 210.763 715.417 Q210.763 722.524 212.569 726.088 Q214.397 729.63 218.008 729.63 Q221.643 729.63 223.448 726.088 Q225.277 722.524 225.277 715.417 Q225.277 708.288 223.448 704.746 Q221.643 701.181 218.008 701.181 M218.008 697.477 Q223.819 697.477 226.874 702.084 Q229.953 706.667 229.953 715.417 Q229.953 724.144 226.874 728.75 Q223.819 733.334 218.008 733.334 Q212.198 733.334 209.12 728.75 Q206.064 724.144 206.064 715.417 Q206.064 706.667 209.12 702.084 Q212.198 697.477 218.008 697.477 Z" fill="#000000" fill-rule="nonzero" fill-opacity="1" /><path clip-path="url(#clip410)" d="M238.17 726.783 L243.055 726.783 L243.055 732.662 L238.17 732.662 L238.17 726.783 Z" fill="#000000" fill-rule="nonzero" fill-opacity="1" /><path clip-path="url(#clip410)" d="M267.406 714.028 Q270.763 714.746 272.638 717.014 Q274.536 719.283 274.536 722.616 Q274.536 727.732 271.017 730.533 Q267.499 733.334 261.018 733.334 Q258.842 733.334 256.527 732.894 Q254.235 732.477 251.781 731.621 L251.781 727.107 Q253.726 728.241 256.041 728.82 Q258.356 729.399 260.879 729.399 Q265.277 729.399 267.568 727.662 Q269.883 725.926 269.883 722.616 Q269.883 719.561 267.73 717.848 Q265.601 716.112 261.781 716.112 L257.754 716.112 L257.754 712.269 L261.967 712.269 Q265.416 712.269 267.244 710.903 Q269.073 709.514 269.073 706.922 Q269.073 704.26 267.175 702.848 Q265.3 701.413 261.781 701.413 Q259.86 701.413 257.661 701.829 Q255.462 702.246 252.823 703.126 L252.823 698.959 Q255.485 698.218 257.8 697.848 Q260.138 697.477 262.198 697.477 Q267.522 697.477 270.624 699.908 Q273.726 702.315 273.726 706.436 Q273.726 709.306 272.082 711.297 Q270.439 713.264 267.406 714.028 Z" fill="#000000" fill-rule="nonzero" fill-opacity="1" /><path clip-path="url(#clip410)" d="M216.874 516.283 Q213.263 516.283 211.434 519.847 Q209.629 523.389 209.629 530.519 Q209.629 537.625 211.434 541.19 Q213.263 544.731 216.874 544.731 Q220.508 544.731 222.314 541.19 Q224.143 537.625 224.143 530.519 Q224.143 523.389 222.314 519.847 Q220.508 516.283 216.874 516.283 M216.874 512.579 Q222.684 512.579 225.74 517.185 Q228.819 521.769 228.819 530.519 Q228.819 539.245 225.74 543.852 Q222.684 548.435 216.874 548.435 Q211.064 548.435 207.985 543.852 Q204.93 539.245 204.93 530.519 Q204.93 521.769 207.985 517.185 Q211.064 512.579 216.874 512.579 Z" fill="#000000" fill-rule="nonzero" fill-opacity="1" /><path clip-path="url(#clip410)" d="M237.036 541.884 L241.92 541.884 L241.92 547.764 L237.036 547.764 L237.036 541.884 Z" fill="#000000" fill-rule="nonzero" fill-opacity="1" /><path clip-path="url(#clip410)" d="M264.953 517.278 L253.147 535.727 L264.953 535.727 L264.953 517.278 M263.726 513.204 L269.605 513.204 L269.605 535.727 L274.536 535.727 L274.536 539.616 L269.605 539.616 L269.605 547.764 L264.953 547.764 L264.953 539.616 L249.351 539.616 L249.351 535.102 L263.726 513.204 Z" fill="#000000" fill-rule="nonzero" fill-opacity="1" /><path clip-path="url(#clip410)" d="M218.356 331.384 Q214.745 331.384 212.916 334.949 Q211.11 338.49 211.11 345.62 Q211.11 352.727 212.916 356.291 Q214.745 359.833 218.356 359.833 Q221.99 359.833 223.796 356.291 Q225.624 352.727 225.624 345.62 Q225.624 338.49 223.796 334.949 Q221.99 331.384 218.356 331.384 M218.356 327.68 Q224.166 327.68 227.221 332.287 Q230.3 336.87 230.3 345.62 Q230.3 354.347 227.221 358.953 Q224.166 363.537 218.356 363.537 Q212.546 363.537 209.467 358.953 Q206.411 354.347 206.411 345.62 Q206.411 336.87 209.467 332.287 Q212.546 327.68 218.356 327.68 Z" fill="#000000" fill-rule="nonzero" fill-opacity="1" /><path clip-path="url(#clip410)" d="M238.518 356.986 L243.402 356.986 L243.402 362.865 L238.518 362.865 L238.518 356.986 Z" fill="#000000" fill-rule="nonzero" fill-opacity="1" /><path clip-path="url(#clip410)" d="M253.633 328.305 L271.99 328.305 L271.99 332.241 L257.916 332.241 L257.916 340.713 Q258.934 340.365 259.953 340.203 Q260.971 340.018 261.99 340.018 Q267.777 340.018 271.156 343.19 Q274.536 346.361 274.536 351.777 Q274.536 357.356 271.064 360.458 Q267.592 363.537 261.272 363.537 Q259.096 363.537 256.828 363.166 Q254.582 362.796 252.175 362.055 L252.175 357.356 Q254.258 358.49 256.481 359.046 Q258.703 359.601 261.18 359.601 Q265.184 359.601 267.522 357.495 Q269.86 355.389 269.86 351.777 Q269.86 348.166 267.522 346.06 Q265.184 343.953 261.18 343.953 Q259.305 343.953 257.43 344.37 Q255.578 344.787 253.633 345.666 L253.633 328.305 Z" fill="#000000" fill-rule="nonzero" fill-opacity="1" /><path clip-path="url(#clip410)" d="M217.198 146.486 Q213.587 146.486 211.759 150.05 Q209.953 153.592 209.953 160.722 Q209.953 167.828 211.759 171.393 Q213.587 174.934 217.198 174.934 Q220.833 174.934 222.638 171.393 Q224.467 167.828 224.467 160.722 Q224.467 153.592 222.638 150.05 Q220.833 146.486 217.198 146.486 M217.198 142.782 Q223.008 142.782 226.064 147.388 Q229.143 151.972 229.143 160.722 Q229.143 169.448 226.064 174.055 Q223.008 178.638 217.198 178.638 Q211.388 178.638 208.309 174.055 Q205.254 169.448 205.254 160.722 Q205.254 151.972 208.309 147.388 Q211.388 142.782 217.198 142.782 Z" fill="#000000" fill-rule="nonzero" fill-opacity="1" /><path clip-path="url(#clip410)" d="M237.36 172.087 L242.244 172.087 L242.244 177.967 L237.36 177.967 L237.36 172.087 Z" fill="#000000" fill-rule="nonzero" fill-opacity="1" /><path clip-path="url(#clip410)" d="M263.008 158.823 Q259.86 158.823 258.008 160.976 Q256.18 163.129 256.18 166.879 Q256.18 170.606 258.008 172.782 Q259.86 174.934 263.008 174.934 Q266.156 174.934 267.985 172.782 Q269.837 170.606 269.837 166.879 Q269.837 163.129 267.985 160.976 Q266.156 158.823 263.008 158.823 M272.291 144.171 L272.291 148.43 Q270.531 147.597 268.726 147.157 Q266.943 146.717 265.184 146.717 Q260.555 146.717 258.101 149.842 Q255.67 152.967 255.323 159.286 Q256.689 157.273 258.749 156.208 Q260.809 155.12 263.286 155.12 Q268.494 155.12 271.504 158.291 Q274.536 161.439 274.536 166.879 Q274.536 172.203 271.388 175.421 Q268.24 178.638 263.008 178.638 Q257.013 178.638 253.842 174.055 Q250.67 169.448 250.67 160.722 Q250.67 152.527 254.559 147.666 Q258.448 142.782 264.999 142.782 Q266.758 142.782 268.541 143.129 Q270.346 143.476 272.291 144.171 Z" fill="#000000" fill-rule="nonzero" fill-opacity="1" /><path clip-path="url(#clip410)" d="M103.426 1255.64 L103.426 1249.43 L133.345 1238.29 L103.426 1227.15 L103.426 1220.94 L139.074 1234.31 L139.074 1242.27 L103.426 1255.64 Z" fill="#000000" fill-rule="nonzero" fill-opacity="1" /><path clip-path="url(#clip410)" d="M107.532 1199.05 Q107.532 1203.76 111.224 1206.49 Q114.884 1209.23 121.282 1209.23 Q127.679 1209.23 131.371 1206.53 Q135.032 1203.79 135.032 1199.05 Q135.032 1194.37 131.34 1191.63 Q127.647 1188.89 121.282 1188.89 Q114.948 1188.89 111.256 1191.63 Q107.532 1194.37 107.532 1199.05 M102.567 1199.05 Q102.567 1191.41 107.532 1187.05 Q112.497 1182.69 121.282 1182.69 Q130.035 1182.69 135.032 1187.05 Q139.997 1191.41 139.997 1199.05 Q139.997 1206.72 135.032 1211.08 Q130.035 1215.41 121.282 1215.41 Q112.497 1215.41 107.532 1211.08 Q102.567 1206.72 102.567 1199.05 Z" fill="#000000" fill-rule="nonzero" fill-opacity="1" /><path clip-path="url(#clip410)" d="M89.5487 1172.98 L89.5487 1167.12 L139.074 1167.12 L139.074 1172.98 L89.5487 1172.98 Z" fill="#000000" fill-rule="nonzero" fill-opacity="1" /><path clip-path="url(#clip410)" d="M125.006 1155.47 L103.426 1155.47 L103.426 1149.62 L124.783 1149.62 Q129.844 1149.62 132.39 1147.64 Q134.904 1145.67 134.904 1141.72 Q134.904 1136.98 131.881 1134.24 Q128.857 1131.47 123.637 1131.47 L103.426 1131.47 L103.426 1125.62 L139.074 1125.62 L139.074 1131.47 L133.599 1131.47 Q136.846 1133.61 138.437 1136.44 Q139.997 1139.24 139.997 1142.96 Q139.997 1149.11 136.177 1152.29 Q132.358 1155.47 125.006 1155.47 M102.567 1140.74 L102.567 1140.74 Z" fill="#000000" fill-rule="nonzero" fill-opacity="1" /><path clip-path="url(#clip410)" d="M110.269 1085.8 Q106.322 1083.6 104.444 1080.55 Q102.567 1077.49 102.567 1073.36 Q102.567 1067.79 106.481 1064.76 Q110.365 1061.74 117.558 1061.74 L139.074 1061.74 L139.074 1067.63 L117.749 1067.63 Q112.624 1067.63 110.142 1069.44 Q107.659 1071.25 107.659 1074.98 Q107.659 1079.53 110.683 1082.17 Q113.707 1084.81 118.926 1084.81 L139.074 1084.81 L139.074 1090.7 L117.749 1090.7 Q112.593 1090.7 110.142 1092.52 Q107.659 1094.33 107.659 1098.12 Q107.659 1102.61 110.715 1105.25 Q113.738 1107.89 118.926 1107.89 L139.074 1107.89 L139.074 1113.78 L103.426 1113.78 L103.426 1107.89 L108.964 1107.89 Q105.686 1105.88 104.126 1103.08 Q102.567 1100.28 102.567 1096.43 Q102.567 1092.55 104.54 1089.84 Q106.513 1087.11 110.269 1085.8 Z" fill="#000000" fill-rule="nonzero" fill-opacity="1" /><path clip-path="url(#clip410)" d="M119.786 1019.57 L122.65 1019.57 L122.65 1046.49 Q128.698 1046.11 131.881 1042.86 Q135.032 1039.59 135.032 1033.76 Q135.032 1030.39 134.204 1027.24 Q133.377 1024.05 131.721 1020.93 L137.26 1020.93 Q138.596 1024.09 139.297 1027.4 Q139.997 1030.71 139.997 1034.11 Q139.997 1042.64 135.032 1047.64 Q130.066 1052.6 121.6 1052.6 Q112.847 1052.6 107.723 1047.89 Q102.567 1043.15 102.567 1035.13 Q102.567 1027.94 107.214 1023.77 Q111.829 1019.57 119.786 1019.57 M118.067 1025.42 Q113.261 1025.49 110.396 1028.13 Q107.532 1030.74 107.532 1035.07 Q107.532 1039.97 110.301 1042.93 Q113.07 1045.86 118.099 1046.3 L118.067 1025.42 Z" fill="#000000" fill-rule="nonzero" fill-opacity="1" /><path clip-path="url(#clip410)" d="M89.5487 971.186 L94.4184 971.186 L94.4184 976.788 Q94.4184 979.939 95.6916 981.18 Q96.9647 982.39 100.275 982.39 L103.426 982.39 L103.426 972.746 L107.977 972.746 L107.977 982.39 L139.074 982.39 L139.074 988.278 L107.977 988.278 L107.977 993.88 L103.426 993.88 L103.426 988.278 L100.943 988.278 Q94.9913 988.278 92.2859 985.509 Q89.5487 982.74 89.5487 976.724 L89.5487 971.186 Z" fill="#000000" fill-rule="nonzero" fill-opacity="1" /><path clip-path="url(#clip410)" d="M108.9 945.628 Q108.328 946.614 108.073 947.792 Q107.786 948.938 107.786 950.338 Q107.786 955.304 111.033 957.977 Q114.248 960.619 120.295 960.619 L139.074 960.619 L139.074 966.507 L103.426 966.507 L103.426 960.619 L108.964 960.619 Q105.718 958.773 104.158 955.813 Q102.567 952.853 102.567 948.62 Q102.567 948.015 102.662 947.283 Q102.726 946.551 102.885 945.66 L108.9 945.628 Z" fill="#000000" fill-rule="nonzero" fill-opacity="1" /><path clip-path="url(#clip410)" d="M121.154 923.284 Q121.154 930.382 122.778 933.119 Q124.401 935.856 128.316 935.856 Q131.435 935.856 133.281 933.819 Q135.095 931.75 135.095 928.217 Q135.095 923.348 131.658 920.419 Q128.189 917.459 122.459 917.459 L121.154 917.459 L121.154 923.284 M118.735 911.603 L139.074 911.603 L139.074 917.459 L133.663 917.459 Q136.91 919.465 138.469 922.457 Q139.997 925.448 139.997 929.777 Q139.997 935.252 136.941 938.498 Q133.854 941.713 128.698 941.713 Q122.682 941.713 119.627 937.702 Q116.571 933.66 116.571 925.671 L116.571 917.459 L115.998 917.459 Q111.956 917.459 109.76 920.133 Q107.532 922.775 107.532 927.581 Q107.532 930.636 108.264 933.533 Q108.996 936.429 110.46 939.103 L105.049 939.103 Q103.808 935.888 103.203 932.864 Q102.567 929.841 102.567 926.976 Q102.567 919.242 106.577 915.422 Q110.587 911.603 118.735 911.603 Z" fill="#000000" fill-rule="nonzero" fill-opacity="1" /><path clip-path="url(#clip410)" d="M104.795 873.886 L110.269 873.886 Q108.9 876.369 108.232 878.883 Q107.532 881.366 107.532 883.912 Q107.532 889.609 111.16 892.761 Q114.757 895.912 121.282 895.912 Q127.807 895.912 131.435 892.761 Q135.032 889.609 135.032 883.912 Q135.032 881.366 134.363 878.883 Q133.663 876.369 132.294 873.886 L137.705 873.886 Q138.851 876.337 139.424 878.979 Q139.997 881.589 139.997 884.549 Q139.997 892.601 134.936 897.344 Q129.875 902.086 121.282 902.086 Q112.561 902.086 107.564 897.312 Q102.567 892.506 102.567 884.167 Q102.567 881.461 103.139 878.883 Q103.681 876.305 104.795 873.886 Z" fill="#000000" fill-rule="nonzero" fill-opacity="1" /><path clip-path="url(#clip410)" d="M93.3044 857.908 L103.426 857.908 L103.426 845.845 L107.977 845.845 L107.977 857.908 L127.329 857.908 Q131.69 857.908 132.931 856.731 Q134.172 855.521 134.172 851.861 L134.172 845.845 L139.074 845.845 L139.074 851.861 Q139.074 858.64 136.559 861.218 Q134.013 863.797 127.329 863.797 L107.977 863.797 L107.977 868.093 L103.426 868.093 L103.426 863.797 L93.3044 863.797 L93.3044 857.908 Z" fill="#000000" fill-rule="nonzero" fill-opacity="1" /><path clip-path="url(#clip410)" d="M103.426 838.143 L103.426 832.286 L139.074 832.286 L139.074 838.143 L103.426 838.143 M89.5487 838.143 L89.5487 832.286 L96.9647 832.286 L96.9647 838.143 L89.5487 838.143 Z" fill="#000000" fill-rule="nonzero" fill-opacity="1" /><path clip-path="url(#clip410)" d="M107.532 806.219 Q107.532 810.929 111.224 813.667 Q114.884 816.404 121.282 816.404 Q127.679 816.404 131.371 813.698 Q135.032 810.961 135.032 806.219 Q135.032 801.54 131.34 798.803 Q127.647 796.065 121.282 796.065 Q114.948 796.065 111.256 798.803 Q107.532 801.54 107.532 806.219 M102.567 806.219 Q102.567 798.58 107.532 794.219 Q112.497 789.859 121.282 789.859 Q130.035 789.859 135.032 794.219 Q139.997 798.58 139.997 806.219 Q139.997 813.889 135.032 818.25 Q130.035 822.579 121.282 822.579 Q112.497 822.579 107.532 818.25 Q102.567 813.889 102.567 806.219 Z" fill="#000000" fill-rule="nonzero" fill-opacity="1" /><path clip-path="url(#clip410)" d="M117.558 750.519 L139.074 750.519 L139.074 756.375 L117.749 756.375 Q112.688 756.375 110.174 758.349 Q107.659 760.322 107.659 764.269 Q107.659 769.011 110.683 771.748 Q113.707 774.486 118.926 774.486 L139.074 774.486 L139.074 780.374 L103.426 780.374 L103.426 774.486 L108.964 774.486 Q105.749 772.385 104.158 769.552 Q102.567 766.688 102.567 762.964 Q102.567 756.821 106.386 753.67 Q110.174 750.519 117.558 750.519 Z" fill="#000000" fill-rule="nonzero" fill-opacity="1" /><path clip-path="url(#clip410)" d="M107.532 704.304 Q107.532 709.014 111.224 711.752 Q114.884 714.489 121.282 714.489 Q127.679 714.489 131.371 711.783 Q135.032 709.046 135.032 704.304 Q135.032 699.625 131.34 696.888 Q127.647 694.15 121.282 694.15 Q114.948 694.15 111.256 696.888 Q107.532 699.625 107.532 704.304 M102.567 704.304 Q102.567 696.665 107.532 692.304 Q112.497 687.944 121.282 687.944 Q130.035 687.944 135.032 692.304 Q139.997 696.665 139.997 704.304 Q139.997 711.974 135.032 716.335 Q130.035 720.664 121.282 720.664 Q112.497 720.664 107.532 716.335 Q102.567 711.974 102.567 704.304 Z" fill="#000000" fill-rule="nonzero" fill-opacity="1" /><path clip-path="url(#clip410)" d="M89.5487 660.189 L94.4184 660.189 L94.4184 665.791 Q94.4184 668.942 95.6916 670.184 Q96.9647 671.393 100.275 671.393 L103.426 671.393 L103.426 661.749 L107.977 661.749 L107.977 671.393 L139.074 671.393 L139.074 677.281 L107.977 677.281 L107.977 682.883 L103.426 682.883 L103.426 677.281 L100.943 677.281 Q94.9913 677.281 92.2859 674.512 Q89.5487 671.743 89.5487 665.728 L89.5487 660.189 Z" fill="#000000" fill-rule="nonzero" fill-opacity="1" /><path clip-path="url(#clip410)" d="M93.3044 628.775 L103.426 628.775 L103.426 616.712 L107.977 616.712 L107.977 628.775 L127.329 628.775 Q131.69 628.775 132.931 627.597 Q134.172 626.388 134.172 622.727 L134.172 616.712 L139.074 616.712 L139.074 622.727 Q139.074 629.507 136.559 632.085 Q134.013 634.663 127.329 634.663 L107.977 634.663 L107.977 638.96 L103.426 638.96 L103.426 634.663 L93.3044 634.663 L93.3044 628.775 Z" fill="#000000" fill-rule="nonzero" fill-opacity="1" /><path clip-path="url(#clip410)" d="M117.558 579.377 L139.074 579.377 L139.074 585.233 L117.749 585.233 Q112.688 585.233 110.174 587.207 Q107.659 589.18 107.659 593.127 Q107.659 597.869 110.683 600.606 Q113.707 603.344 118.926 603.344 L139.074 603.344 L139.074 609.232 L89.5487 609.232 L89.5487 603.344 L108.964 603.344 Q105.749 601.243 104.158 598.41 Q102.567 595.546 102.567 591.822 Q102.567 585.679 106.386 582.528 Q110.174 579.377 117.558 579.377 Z" fill="#000000" fill-rule="nonzero" fill-opacity="1" /><path clip-path="url(#clip410)" d="M119.786 537.204 L122.65 537.204 L122.65 564.131 Q128.698 563.749 131.881 560.502 Q135.032 557.224 135.032 551.399 Q135.032 548.026 134.204 544.875 Q133.377 541.692 131.721 538.573 L137.26 538.573 Q138.596 541.724 139.297 545.034 Q139.997 548.344 139.997 551.75 Q139.997 560.28 135.032 565.277 Q130.066 570.242 121.6 570.242 Q112.847 570.242 107.723 565.531 Q102.567 560.789 102.567 552.768 Q102.567 545.575 107.214 541.405 Q111.829 537.204 119.786 537.204 M118.067 543.06 Q113.261 543.124 110.396 545.766 Q107.532 548.376 107.532 552.704 Q107.532 557.606 110.301 560.566 Q113.07 563.494 118.099 563.94 L118.067 543.06 Z" fill="#000000" fill-rule="nonzero" fill-opacity="1" /><path clip-path="url(#clip410)" d="M89.5487 488.825 L94.4184 488.825 L94.4184 494.426 Q94.4184 497.577 95.6916 498.819 Q96.9647 500.028 100.275 500.028 L103.426 500.028 L103.426 490.384 L107.977 490.384 L107.977 500.028 L139.074 500.028 L139.074 505.917 L107.977 505.917 L107.977 511.518 L103.426 511.518 L103.426 505.917 L100.943 505.917 Q94.9913 505.917 92.2859 503.147 Q89.5487 500.378 89.5487 494.363 L89.5487 488.825 Z" fill="#000000" fill-rule="nonzero" fill-opacity="1" /><path clip-path="url(#clip410)" d="M108.9 463.266 Q108.328 464.253 108.073 465.431 Q107.786 466.576 107.786 467.977 Q107.786 472.942 111.033 475.616 Q114.248 478.258 120.295 478.258 L139.074 478.258 L139.074 484.146 L103.426 484.146 L103.426 478.258 L108.964 478.258 Q105.718 476.411 104.158 473.451 Q102.567 470.491 102.567 466.258 Q102.567 465.653 102.662 464.921 Q102.726 464.189 102.885 463.298 L108.9 463.266 Z" fill="#000000" fill-rule="nonzero" fill-opacity="1" /><path clip-path="url(#clip410)" d="M119.786 428.064 L122.65 428.064 L122.65 454.991 Q128.698 454.609 131.881 451.362 Q135.032 448.084 135.032 442.259 Q135.032 438.886 134.204 435.735 Q133.377 432.552 131.721 429.433 L137.26 429.433 Q138.596 432.584 139.297 435.894 Q139.997 439.204 139.997 442.61 Q139.997 451.14 135.032 456.137 Q130.066 461.102 121.6 461.102 Q112.847 461.102 107.723 456.391 Q102.567 451.649 102.567 443.628 Q102.567 436.435 107.214 432.265 Q111.829 428.064 119.786 428.064 M118.067 433.92 Q113.261 433.984 110.396 436.626 Q107.532 439.236 107.532 443.564 Q107.532 448.466 110.301 451.426 Q113.07 454.354 118.099 454.8 L118.067 433.92 Z" fill="#000000" fill-rule="nonzero" fill-opacity="1" /><path clip-path="url(#clip410)" d="M104.476 395.726 L110.014 395.726 Q108.741 398.209 108.105 400.882 Q107.468 403.556 107.468 406.421 Q107.468 410.781 108.805 412.977 Q110.142 415.142 112.815 415.142 Q114.852 415.142 116.03 413.582 Q117.176 412.022 118.226 407.312 L118.672 405.307 Q120.009 399.068 122.459 396.458 Q124.878 393.816 129.239 393.816 Q134.204 393.816 137.1 397.763 Q139.997 401.678 139.997 408.553 Q139.997 411.418 139.424 414.537 Q138.883 417.624 137.769 421.062 L131.721 421.062 Q133.408 417.815 134.268 414.664 Q135.095 411.513 135.095 408.426 Q135.095 404.288 133.695 402.06 Q132.263 399.832 129.684 399.832 Q127.297 399.832 126.024 401.455 Q124.751 403.047 123.573 408.489 L123.096 410.526 Q121.95 415.969 119.595 418.388 Q117.208 420.807 113.07 420.807 Q108.041 420.807 105.304 417.242 Q102.567 413.677 102.567 407.121 Q102.567 403.874 103.044 401.01 Q103.521 398.145 104.476 395.726 Z" fill="#000000" fill-rule="nonzero" fill-opacity="1" /><path clip-path="url(#clip410)" d="M117.558 354.858 L139.074 354.858 L139.074 360.715 L117.749 360.715 Q112.688 360.715 110.174 362.688 Q107.659 364.661 107.659 368.608 Q107.659 373.351 110.683 376.088 Q113.707 378.825 118.926 378.825 L139.074 378.825 L139.074 384.713 L89.5487 384.713 L89.5487 378.825 L108.964 378.825 Q105.749 376.724 104.158 373.892 Q102.567 371.027 102.567 367.303 Q102.567 361.16 106.386 358.009 Q110.174 354.858 117.558 354.858 Z" fill="#000000" fill-rule="nonzero" fill-opacity="1" /><path clip-path="url(#clip410)" d="M133.727 316.791 L152.633 316.791 L152.633 322.68 L103.426 322.68 L103.426 316.791 L108.837 316.791 Q105.654 314.945 104.126 312.144 Q102.567 309.312 102.567 305.397 Q102.567 298.904 107.723 294.862 Q112.879 290.787 121.282 290.787 Q129.684 290.787 134.841 294.862 Q139.997 298.904 139.997 305.397 Q139.997 309.312 138.469 312.144 Q136.91 314.945 133.727 316.791 M121.282 296.867 Q114.821 296.867 111.16 299.54 Q107.468 302.182 107.468 306.829 Q107.468 311.476 111.16 314.15 Q114.821 316.791 121.282 316.791 Q127.743 316.791 131.435 314.15 Q135.095 311.476 135.095 306.829 Q135.095 302.182 131.435 299.54 Q127.743 296.867 121.282 296.867 Z" fill="#000000" fill-rule="nonzero" fill-opacity="1" /><path clip-path="url(#clip410)" d="M121.154 264.879 Q121.154 271.977 122.778 274.714 Q124.401 277.451 128.316 277.451 Q131.435 277.451 133.281 275.414 Q135.095 273.345 135.095 269.812 Q135.095 264.943 131.658 262.014 Q128.189 259.054 122.459 259.054 L121.154 259.054 L121.154 264.879 M118.735 253.198 L139.074 253.198 L139.074 259.054 L133.663 259.054 Q136.91 261.06 138.469 264.051 Q139.997 267.043 139.997 271.372 Q139.997 276.847 136.941 280.093 Q133.854 283.308 128.698 283.308 Q122.682 283.308 119.627 279.297 Q116.571 275.255 116.571 267.266 L116.571 259.054 L115.998 259.054 Q111.956 259.054 109.76 261.728 Q107.532 264.37 107.532 269.176 Q107.532 272.231 108.264 275.128 Q108.996 278.024 110.46 280.698 L105.049 280.698 Q103.808 277.483 103.203 274.459 Q102.567 271.436 102.567 268.571 Q102.567 260.837 106.577 257.017 Q110.587 253.198 118.735 253.198 Z" fill="#000000" fill-rule="nonzero" fill-opacity="1" /><path clip-path="url(#clip410)" d="M104.476 218.409 L110.014 218.409 Q108.741 220.892 108.105 223.566 Q107.468 226.239 107.468 229.104 Q107.468 233.464 108.805 235.66 Q110.142 237.825 112.815 237.825 Q114.852 237.825 116.03 236.265 Q117.176 234.706 118.226 229.995 L118.672 227.99 Q120.009 221.751 122.459 219.141 Q124.878 216.5 129.239 216.5 Q134.204 216.5 137.1 220.446 Q139.997 224.361 139.997 231.236 Q139.997 234.101 139.424 237.22 Q138.883 240.307 137.769 243.745 L131.721 243.745 Q133.408 240.498 134.268 237.347 Q135.095 234.196 135.095 231.109 Q135.095 226.971 133.695 224.743 Q132.263 222.515 129.684 222.515 Q127.297 222.515 126.024 224.139 Q124.751 225.73 123.573 231.173 L123.096 233.21 Q121.95 238.652 119.595 241.071 Q117.208 243.49 113.07 243.49 Q108.041 243.49 105.304 239.925 Q102.567 236.361 102.567 229.804 Q102.567 226.557 103.044 223.693 Q103.521 220.828 104.476 218.409 Z" fill="#000000" fill-rule="nonzero" fill-opacity="1" /><path clip-path="url(#clip410)" d="M93.3044 201.381 L103.426 201.381 L103.426 189.318 L107.977 189.318 L107.977 201.381 L127.329 201.381 Q131.69 201.381 132.931 200.203 Q134.172 198.994 134.172 195.334 L134.172 189.318 L139.074 189.318 L139.074 195.334 Q139.074 202.113 136.559 204.691 Q134.013 207.269 127.329 207.269 L107.977 207.269 L107.977 211.566 L103.426 211.566 L103.426 207.269 L93.3044 207.269 L93.3044 201.381 Z" fill="#000000" fill-rule="nonzero" fill-opacity="1" /><path clip-path="url(#clip410)" d="M119.786 151.124 L122.65 151.124 L122.65 178.051 Q128.698 177.669 131.881 174.422 Q135.032 171.144 135.032 165.319 Q135.032 161.946 134.204 158.795 Q133.377 155.612 131.721 152.492 L137.26 152.492 Q138.596 155.644 139.297 158.954 Q139.997 162.264 139.997 165.669 Q139.997 174.2 135.032 179.197 Q130.066 184.162 121.6 184.162 Q112.847 184.162 107.723 179.451 Q102.567 174.709 102.567 166.688 Q102.567 159.495 107.214 155.325 Q111.829 151.124 119.786 151.124 M118.067 156.98 Q113.261 157.044 110.396 159.686 Q107.532 162.296 107.532 166.624 Q107.532 171.526 110.301 174.486 Q113.07 177.414 118.099 177.86 L118.067 156.98 Z" fill="#000000" fill-rule="nonzero" fill-opacity="1" /><path clip-path="url(#clip410)" d="M1124.57 12.096 L1132.83 12.096 L1145.55 63.2184 L1158.23 12.096 L1167.42 12.096 L1180.14 63.2184 L1192.82 12.096 L1201.13 12.096 L1185.94 72.576 L1175.65 72.576 L1162.89 20.0763 L1150.01 72.576 L1139.72 72.576 L1124.57 12.096 Z" fill="#000000" fill-rule="nonzero" fill-opacity="1" /><path clip-path="url(#clip410)" d="M1249.37 45.1919 L1249.37 72.576 L1241.92 72.576 L1241.92 45.4349 Q1241.92 38.994 1239.41 35.7938 Q1236.9 32.5936 1231.87 32.5936 Q1225.84 32.5936 1222.35 36.4419 Q1218.87 40.2903 1218.87 46.9338 L1218.87 72.576 L1211.38 72.576 L1211.38 9.54393 L1218.87 9.54393 L1218.87 34.2544 Q1221.54 30.163 1225.15 28.1376 Q1228.8 26.1121 1233.54 26.1121 Q1241.35 26.1121 1245.36 30.9732 Q1249.37 35.7938 1249.37 45.1919 Z" fill="#000000" fill-rule="nonzero" fill-opacity="1" /><path clip-path="url(#clip410)" d="M1284.86 49.7694 Q1275.83 49.7694 1272.34 51.8354 Q1268.86 53.9013 1268.86 58.8839 Q1268.86 62.8538 1271.45 65.2034 Q1274.09 67.5124 1278.58 67.5124 Q1284.78 67.5124 1288.51 63.1374 Q1292.27 58.7219 1292.27 51.4303 L1292.27 49.7694 L1284.86 49.7694 M1299.73 46.6907 L1299.73 72.576 L1292.27 72.576 L1292.27 65.6895 Q1289.72 69.8214 1285.91 71.8063 Q1282.11 73.7508 1276.6 73.7508 Q1269.63 73.7508 1265.5 69.8619 Q1261.41 65.9325 1261.41 59.3701 Q1261.41 51.7138 1266.51 47.825 Q1271.65 43.9361 1281.82 43.9361 L1292.27 43.9361 L1292.27 43.2069 Q1292.27 38.0623 1288.87 35.2672 Q1285.51 32.4315 1279.39 32.4315 Q1275.5 32.4315 1271.82 33.3632 Q1268.13 34.295 1264.73 36.1584 L1264.73 29.2718 Q1268.82 27.692 1272.67 26.9223 Q1276.52 26.1121 1280.16 26.1121 Q1290.01 26.1121 1294.87 31.2163 Q1299.73 36.3204 1299.73 46.6907 Z" fill="#000000" fill-rule="nonzero" fill-opacity="1" /><path clip-path="url(#clip410)" d="M1322.45 14.324 L1322.45 27.2059 L1337.81 27.2059 L1337.81 32.9987 L1322.45 32.9987 L1322.45 57.6282 Q1322.45 63.1779 1323.95 64.7578 Q1325.49 66.3376 1330.15 66.3376 L1337.81 66.3376 L1337.81 72.576 L1330.15 72.576 Q1321.52 72.576 1318.24 69.3758 Q1314.96 66.1351 1314.96 57.6282 L1314.96 32.9987 L1309.49 32.9987 L1309.49 27.2059 L1314.96 27.2059 L1314.96 14.324 L1322.45 14.324 Z" fill="#000000" fill-rule="nonzero" fill-opacity="1" /><path clip-path="url(#clip410)" d="M1369.65 27.2059 L1377.1 27.2059 L1386.42 62.6108 L1395.69 27.2059 L1404.48 27.2059 L1413.8 62.6108 L1423.08 27.2059 L1430.53 27.2059 L1418.66 72.576 L1409.87 72.576 L1400.11 35.3887 L1390.31 72.576 L1381.51 72.576 L1369.65 27.2059 Z" fill="#000000" fill-rule="nonzero" fill-opacity="1" /><path clip-path="url(#clip410)" d="M1480.64 48.0275 L1480.64 51.6733 L1446.37 51.6733 Q1446.86 59.3701 1450.99 63.421 Q1455.16 67.4314 1462.57 67.4314 Q1466.87 67.4314 1470.88 66.3781 Q1474.93 65.3249 1478.9 63.2184 L1478.9 70.267 Q1474.89 71.9684 1470.68 72.8596 Q1466.46 73.7508 1462.13 73.7508 Q1451.27 73.7508 1444.91 67.4314 Q1438.59 61.1119 1438.59 50.3365 Q1438.59 39.1965 1444.59 32.6746 Q1450.62 26.1121 1460.83 26.1121 Q1469.99 26.1121 1475.29 32.0264 Q1480.64 37.9003 1480.64 48.0275 M1473.19 45.84 Q1473.11 39.7232 1469.74 36.0774 Q1466.42 32.4315 1460.91 32.4315 Q1454.67 32.4315 1450.91 35.9558 Q1447.18 39.4801 1446.61 45.8805 L1473.19 45.84 Z" fill="#000000" fill-rule="nonzero" fill-opacity="1" /><path clip-path="url(#clip410)" d="M1530.59 45.1919 L1530.59 72.576 L1523.13 72.576 L1523.13 45.4349 Q1523.13 38.994 1520.62 35.7938 Q1518.11 32.5936 1513.09 32.5936 Q1507.05 32.5936 1503.57 36.4419 Q1500.08 40.2903 1500.08 46.9338 L1500.08 72.576 L1492.59 72.576 L1492.59 27.2059 L1500.08 27.2059 L1500.08 34.2544 Q1502.76 30.163 1506.36 28.1376 Q1510.01 26.1121 1514.75 26.1121 Q1522.57 26.1121 1526.58 30.9732 Q1530.59 35.7938 1530.59 45.1919 Z" fill="#000000" fill-rule="nonzero" fill-opacity="1" /><path clip-path="url(#clip410)" d="M1552.83 14.324 L1552.83 27.2059 L1568.18 27.2059 L1568.18 32.9987 L1552.83 32.9987 L1552.83 57.6282 Q1552.83 63.1779 1554.33 64.7578 Q1555.87 66.3376 1560.52 66.3376 L1568.18 66.3376 L1568.18 72.576 L1560.52 72.576 Q1551.9 72.576 1548.61 69.3758 Q1545.33 66.1351 1545.33 57.6282 L1545.33 32.9987 L1539.86 32.9987 L1539.86 27.2059 L1545.33 27.2059 L1545.33 14.324 L1552.83 14.324 Z" fill="#000000" fill-rule="nonzero" fill-opacity="1" /><path clip-path="url(#clip410)" d="M1604.36 27.2059 L1611.81 27.2059 L1611.81 72.576 L1604.36 72.576 L1604.36 27.2059 M1604.36 9.54393 L1611.81 9.54393 L1611.81 18.9825 L1604.36 18.9825 L1604.36 9.54393 Z" fill="#000000" fill-rule="nonzero" fill-opacity="1" /><path clip-path="url(#clip410)" d="M1665.12 45.1919 L1665.12 72.576 L1657.67 72.576 L1657.67 45.4349 Q1657.67 38.994 1655.15 35.7938 Q1652.64 32.5936 1647.62 32.5936 Q1641.58 32.5936 1638.1 36.4419 Q1634.62 40.2903 1634.62 46.9338 L1634.62 72.576 L1627.12 72.576 L1627.12 27.2059 L1634.62 27.2059 L1634.62 34.2544 Q1637.29 30.163 1640.89 28.1376 Q1644.54 26.1121 1649.28 26.1121 Q1657.1 26.1121 1661.11 30.9732 Q1665.12 35.7938 1665.12 45.1919 Z" fill="#000000" fill-rule="nonzero" fill-opacity="1" /><path clip-path="url(#clip410)" d="M1681.89 62.2867 L1690.44 62.2867 L1690.44 69.2543 L1683.79 82.2172 L1678.57 82.2172 L1681.89 69.2543 L1681.89 62.2867 Z" fill="#000000" fill-rule="nonzero" fill-opacity="1" /><path clip-path="url(#clip410)" d="M1753.35 49.7694 Q1744.31 49.7694 1740.83 51.8354 Q1737.35 53.9013 1737.35 58.8839 Q1737.35 62.8538 1739.94 65.2034 Q1742.57 67.5124 1747.07 67.5124 Q1753.27 67.5124 1756.99 63.1374 Q1760.76 58.7219 1760.76 51.4303 L1760.76 49.7694 L1753.35 49.7694 M1768.21 46.6907 L1768.21 72.576 L1760.76 72.576 L1760.76 65.6895 Q1758.21 69.8214 1754.4 71.8063 Q1750.59 73.7508 1745.08 73.7508 Q1738.12 73.7508 1733.98 69.8619 Q1729.89 65.9325 1729.89 59.3701 Q1729.89 51.7138 1735 47.825 Q1740.14 43.9361 1750.31 43.9361 L1760.76 43.9361 L1760.76 43.2069 Q1760.76 38.0623 1757.36 35.2672 Q1754 32.4315 1747.88 32.4315 Q1743.99 32.4315 1740.3 33.3632 Q1736.62 34.295 1733.21 36.1584 L1733.21 29.2718 Q1737.31 27.692 1741.15 26.9223 Q1745 26.1121 1748.65 26.1121 Q1758.49 26.1121 1763.35 31.2163 Q1768.21 36.3204 1768.21 46.6907 Z" fill="#000000" fill-rule="nonzero" fill-opacity="1" /><path clip-path="url(#clip410)" d="M1821.28 45.1919 L1821.28 72.576 L1813.83 72.576 L1813.83 45.4349 Q1813.83 38.994 1811.32 35.7938 Q1808.8 32.5936 1803.78 32.5936 Q1797.75 32.5936 1794.26 36.4419 Q1790.78 40.2903 1790.78 46.9338 L1790.78 72.576 L1783.28 72.576 L1783.28 27.2059 L1790.78 27.2059 L1790.78 34.2544 Q1793.45 30.163 1797.06 28.1376 Q1800.7 26.1121 1805.44 26.1121 Q1813.26 26.1121 1817.27 30.9732 Q1821.28 35.7938 1821.28 45.1919 Z" fill="#000000" fill-rule="nonzero" fill-opacity="1" /><path clip-path="url(#clip410)" d="M1866 34.0924 L1866 9.54393 L1873.46 9.54393 L1873.46 72.576 L1866 72.576 L1866 65.7705 Q1863.65 69.8214 1860.05 71.8063 Q1856.48 73.7508 1851.46 73.7508 Q1843.24 73.7508 1838.05 67.1883 Q1832.91 60.6258 1832.91 49.9314 Q1832.91 39.2371 1838.05 32.6746 Q1843.24 26.1121 1851.46 26.1121 Q1856.48 26.1121 1860.05 28.0971 Q1863.65 30.0415 1866 34.0924 M1840.6 49.9314 Q1840.6 58.1548 1843.97 62.8538 Q1847.37 67.5124 1853.28 67.5124 Q1859.2 67.5124 1862.6 62.8538 Q1866 58.1548 1866 49.9314 Q1866 41.7081 1862.6 37.0496 Q1859.2 32.3505 1853.28 32.3505 Q1847.37 32.3505 1843.97 37.0496 Q1840.6 41.7081 1840.6 49.9314 Z" fill="#000000" fill-rule="nonzero" fill-opacity="1" /><path clip-path="url(#clip410)" d="M1910.85 27.2059 L1918.3 27.2059 L1927.62 62.6108 L1936.89 27.2059 L1945.68 27.2059 L1955 62.6108 L1964.28 27.2059 L1971.73 27.2059 L1959.86 72.576 L1951.07 72.576 L1941.31 35.3887 L1931.51 72.576 L1922.72 72.576 L1910.85 27.2059 Z" fill="#000000" fill-rule="nonzero" fill-opacity="1" /><path clip-path="url(#clip410)" d="M2020.75 45.1919 L2020.75 72.576 L2013.29 72.576 L2013.29 45.4349 Q2013.29 38.994 2010.78 35.7938 Q2008.27 32.5936 2003.25 32.5936 Q1997.21 32.5936 1993.73 36.4419 Q1990.24 40.2903 1990.24 46.9338 L1990.24 72.576 L1982.75 72.576 L1982.75 9.54393 L1990.24 9.54393 L1990.24 34.2544 Q1992.92 30.163 1996.52 28.1376 Q2000.17 26.1121 2004.91 26.1121 Q2012.73 26.1121 2016.74 30.9732 Q2020.75 35.7938 2020.75 45.1919 Z" fill="#000000" fill-rule="nonzero" fill-opacity="1" /><path clip-path="url(#clip410)" d="M2056.23 49.7694 Q2047.2 49.7694 2043.72 51.8354 Q2040.23 53.9013 2040.23 58.8839 Q2040.23 62.8538 2042.83 65.2034 Q2045.46 67.5124 2049.95 67.5124 Q2056.15 67.5124 2059.88 63.1374 Q2063.65 58.7219 2063.65 51.4303 L2063.65 49.7694 L2056.23 49.7694 M2071.1 46.6907 L2071.1 72.576 L2063.65 72.576 L2063.65 65.6895 Q2061.09 69.8214 2057.29 71.8063 Q2053.48 73.7508 2047.97 73.7508 Q2041 73.7508 2036.87 69.8619 Q2032.78 65.9325 2032.78 59.3701 Q2032.78 51.7138 2037.88 47.825 Q2043.03 43.9361 2053.2 43.9361 L2063.65 43.9361 L2063.65 43.2069 Q2063.65 38.0623 2060.24 35.2672 Q2056.88 32.4315 2050.76 32.4315 Q2046.88 32.4315 2043.19 33.3632 Q2039.5 34.295 2036.1 36.1584 L2036.1 29.2718 Q2040.19 27.692 2044.04 26.9223 Q2047.89 26.1121 2051.53 26.1121 Q2061.38 26.1121 2066.24 31.2163 Q2071.1 36.3204 2071.1 46.6907 Z" fill="#000000" fill-rule="nonzero" fill-opacity="1" /><path clip-path="url(#clip410)" d="M2093.83 14.324 L2093.83 27.2059 L2109.18 27.2059 L2109.18 32.9987 L2093.83 32.9987 L2093.83 57.6282 Q2093.83 63.1779 2095.32 64.7578 Q2096.86 66.3376 2101.52 66.3376 L2109.18 66.3376 L2109.18 72.576 L2101.52 72.576 Q2092.89 72.576 2089.61 69.3758 Q2086.33 66.1351 2086.33 57.6282 L2086.33 32.9987 L2080.86 32.9987 L2080.86 27.2059 L2086.33 27.2059 L2086.33 14.324 L2093.83 14.324 Z" fill="#000000" fill-rule="nonzero" fill-opacity="1" /><path clip-path="url(#clip410)" d="M2145.35 27.2059 L2152.81 27.2059 L2152.81 72.576 L2145.35 72.576 L2145.35 27.2059 M2145.35 9.54393 L2152.81 9.54393 L2152.81 18.9825 L2145.35 18.9825 L2145.35 9.54393 Z" fill="#000000" fill-rule="nonzero" fill-opacity="1" /><path clip-path="url(#clip410)" d="M2175.78 14.324 L2175.78 27.2059 L2191.13 27.2059 L2191.13 32.9987 L2175.78 32.9987 L2175.78 57.6282 Q2175.78 63.1779 2177.27 64.7578 Q2178.81 66.3376 2183.47 66.3376 L2191.13 66.3376 L2191.13 72.576 L2183.47 72.576 Q2174.84 72.576 2171.56 69.3758 Q2168.28 66.1351 2168.28 57.6282 L2168.28 32.9987 L2162.81 32.9987 L2162.81 27.2059 L2168.28 27.2059 L2168.28 14.324 L2175.78 14.324 Z" fill="#000000" fill-rule="nonzero" fill-opacity="1" /><path clip-path="url(#clip410)" d="M2259.87 49.9314 Q2259.87 41.7081 2256.47 37.0496 Q2253.11 32.3505 2247.19 32.3505 Q2241.28 32.3505 2237.88 37.0496 Q2234.51 41.7081 2234.51 49.9314 Q2234.51 58.1548 2237.88 62.8538 Q2241.28 67.5124 2247.19 67.5124 Q2253.11 67.5124 2256.47 62.8538 Q2259.87 58.1548 2259.87 49.9314 M2234.51 34.0924 Q2236.86 30.0415 2240.43 28.0971 Q2244.03 26.1121 2249.02 26.1121 Q2257.28 26.1121 2262.42 32.6746 Q2267.61 39.2371 2267.61 49.9314 Q2267.61 60.6258 2262.42 67.1883 Q2257.28 73.7508 2249.02 73.7508 Q2244.03 73.7508 2240.43 71.8063 Q2236.86 69.8214 2234.51 65.7705 L2234.51 72.576 L2227.02 72.576 L2227.02 9.54393 L2234.51 9.54393 L2234.51 34.0924 Z" fill="#000000" fill-rule="nonzero" fill-opacity="1" /><path clip-path="url(#clip410)" d="M2318.77 48.0275 L2318.77 51.6733 L2284.5 51.6733 Q2284.99 59.3701 2289.12 63.421 Q2293.29 67.4314 2300.71 67.4314 Q2305 67.4314 2309.01 66.3781 Q2313.06 65.3249 2317.03 63.2184 L2317.03 70.267 Q2313.02 71.9684 2308.81 72.8596 Q2304.59 73.7508 2300.26 73.7508 Q2289.4 73.7508 2283.04 67.4314 Q2276.72 61.1119 2276.72 50.3365 Q2276.72 39.1965 2282.72 32.6746 Q2288.76 26.1121 2298.96 26.1121 Q2308.12 26.1121 2313.43 32.0264 Q2318.77 37.9003 2318.77 48.0275 M2311.32 45.84 Q2311.24 39.7232 2307.88 36.0774 Q2304.55 32.4315 2299.04 32.4315 Q2292.81 32.4315 2289.04 35.9558 Q2285.31 39.4801 2284.75 45.8805 L2311.32 45.84 Z" fill="#000000" fill-rule="nonzero" fill-opacity="1" /><path clip-path="url(#clip410)" d="M2363.66 28.9478 L2363.66 35.9153 Q2360.5 34.1734 2357.3 33.3227 Q2354.14 32.4315 2350.9 32.4315 Q2343.65 32.4315 2339.63 37.0496 Q2335.62 41.6271 2335.62 49.9314 Q2335.62 58.2358 2339.63 62.8538 Q2343.65 67.4314 2350.9 67.4314 Q2354.14 67.4314 2357.3 66.5807 Q2360.5 65.6895 2363.66 63.9476 L2363.66 70.8341 Q2360.54 72.2924 2357.18 73.0216 Q2353.85 73.7508 2350.09 73.7508 Q2339.84 73.7508 2333.8 67.3098 Q2327.77 60.8689 2327.77 49.9314 Q2327.77 38.832 2333.84 32.472 Q2339.96 26.1121 2350.57 26.1121 Q2354.02 26.1121 2357.3 26.8413 Q2360.58 27.5299 2363.66 28.9478 Z" fill="#000000" fill-rule="nonzero" fill-opacity="1" /><path clip-path="url(#clip410)" d="M2397.24 49.7694 Q2388.21 49.7694 2384.72 51.8354 Q2381.24 53.9013 2381.24 58.8839 Q2381.24 62.8538 2383.83 65.2034 Q2386.46 67.5124 2390.96 67.5124 Q2397.16 67.5124 2400.88 63.1374 Q2404.65 58.7219 2404.65 51.4303 L2404.65 49.7694 L2397.24 49.7694 M2412.11 46.6907 L2412.11 72.576 L2404.65 72.576 L2404.65 65.6895 Q2402.1 69.8214 2398.29 71.8063 Q2394.48 73.7508 2388.97 73.7508 Q2382.01 73.7508 2377.88 69.8619 Q2373.78 65.9325 2373.78 59.3701 Q2373.78 51.7138 2378.89 47.825 Q2384.03 43.9361 2394.2 43.9361 L2404.65 43.9361 L2404.65 43.2069 Q2404.65 38.0623 2401.25 35.2672 Q2397.89 32.4315 2391.77 32.4315 Q2387.88 32.4315 2384.19 33.3632 Q2380.51 34.295 2377.11 36.1584 L2377.11 29.2718 Q2381.2 27.692 2385.05 26.9223 Q2388.89 26.1121 2392.54 26.1121 Q2402.38 26.1121 2407.24 31.2163 Q2412.11 36.3204 2412.11 46.6907 Z" fill="#000000" fill-rule="nonzero" fill-opacity="1" /><path clip-path="url(#clip410)" d="M2462.78 35.9153 Q2465.58 30.8922 2469.47 28.5022 Q2473.36 26.1121 2478.62 26.1121 Q2485.71 26.1121 2489.56 31.0947 Q2493.41 36.0368 2493.41 45.1919 L2493.41 72.576 L2485.91 72.576 L2485.91 45.4349 Q2485.91 38.913 2483.6 35.7533 Q2481.29 32.5936 2476.56 32.5936 Q2470.76 32.5936 2467.4 36.4419 Q2464.04 40.2903 2464.04 46.9338 L2464.04 72.576 L2456.54 72.576 L2456.54 45.4349 Q2456.54 38.8725 2454.23 35.7533 Q2451.93 32.5936 2447.11 32.5936 Q2441.39 32.5936 2438.03 36.4824 Q2434.67 40.3308 2434.67 46.9338 L2434.67 72.576 L2427.17 72.576 L2427.17 27.2059 L2434.67 27.2059 L2434.67 34.2544 Q2437.22 30.082 2440.79 28.0971 Q2444.35 26.1121 2449.25 26.1121 Q2454.19 26.1121 2457.64 28.6237 Q2461.12 31.1352 2462.78 35.9153 Z" fill="#000000" fill-rule="nonzero" fill-opacity="1" /><path clip-path="url(#clip410)" d="M2547.08 48.0275 L2547.08 51.6733 L2512.81 51.6733 Q2513.3 59.3701 2517.43 63.421 Q2521.6 67.4314 2529.01 67.4314 Q2533.31 67.4314 2537.32 66.3781 Q2541.37 65.3249 2545.34 63.2184 L2545.34 70.267 Q2541.33 71.9684 2537.12 72.8596 Q2532.9 73.7508 2528.57 73.7508 Q2517.71 73.7508 2511.35 67.4314 Q2505.03 61.1119 2505.03 50.3365 Q2505.03 39.1965 2511.03 32.6746 Q2517.06 26.1121 2527.27 26.1121 Q2536.43 26.1121 2541.73 32.0264 Q2547.08 37.9003 2547.08 48.0275 M2539.63 45.84 Q2539.55 39.7232 2536.18 36.0774 Q2532.86 32.4315 2527.35 32.4315 Q2521.12 32.4315 2517.35 35.9558 Q2513.62 39.4801 2513.05 45.8805 L2539.63 45.84 Z" fill="#000000" fill-rule="nonzero" fill-opacity="1" /><path clip-path="url(#clip412)" d="M489.239 644.272 L489.239 1270.08 L594.096 1270.08 L594.096 644.272 L489.239 644.272 L489.239 644.272  Z" fill="#b3b3b3" fill-rule="evenodd" fill-opacity="1"/>
<polyline clip-path="url(#clip412)" style="stroke:#000000; stroke-linecap:round; stroke-linejoin:round; stroke-width:4; stroke-opacity:1; fill:none" points="489.239,644.272 489.239,1270.08 594.096,1270.08 594.096,644.272 489.239,644.272 "/>
<path clip-path="url(#clip412)" d="M765.179 1240.48 L765.179 1270.08 L870.036 1270.08 L870.036 1240.48 L765.179 1240.48 L765.179 1240.48  Z" fill="#b3b3b3" fill-rule="evenodd" fill-opacity="1"/>
<polyline clip-path="url(#clip412)" style="stroke:#000000; stroke-linecap:round; stroke-linejoin:round; stroke-width:4; stroke-opacity:1; fill:none" points="765.179,1240.48 765.179,1270.08 870.036,1270.08 870.036,1240.48 765.179,1240.48 "/>
<path clip-path="url(#clip412)" d="M1041.12 1250.92 L1041.12 1270.08 L1145.98 1270.08 L1145.98 1250.92 L1041.12 1250.92 L1041.12 1250.92  Z" fill="#b3b3b3" fill-rule="evenodd" fill-opacity="1"/>
<polyline clip-path="url(#clip412)" style="stroke:#000000; stroke-linecap:round; stroke-linejoin:round; stroke-width:4; stroke-opacity:1; fill:none" points="1041.12,1250.92 1041.12,1270.08 1145.98,1270.08 1145.98,1250.92 1041.12,1250.92 "/>
<path clip-path="url(#clip412)" d="M1317.06 1270.08 L1317.06 1270.08 L1421.91 1270.08 L1421.91 1270.08 L1317.06 1270.08 L1317.06 1270.08  Z" fill="#b3b3b3" fill-rule="evenodd" fill-opacity="1"/>
<polyline clip-path="url(#clip412)" style="stroke:#000000; stroke-linecap:round; stroke-linejoin:round; stroke-width:4; stroke-opacity:1; fill:none" points="1317.06,1270.08 1317.06,1270.08 1421.91,1270.08 1421.91,1270.08 1317.06,1270.08 "/>
<path clip-path="url(#clip412)" d="M1593 1270.08 L1593 1270.08 L1697.85 1270.08 L1697.85 1270.08 L1593 1270.08 L1593 1270.08  Z" fill="#b3b3b3" fill-rule="evenodd" fill-opacity="1"/>
<polyline clip-path="url(#clip412)" style="stroke:#000000; stroke-linecap:round; stroke-linejoin:round; stroke-width:4; stroke-opacity:1; fill:none" points="1593,1270.08 1593,1270.08 1697.85,1270.08 1697.85,1270.08 1593,1270.08 "/>
<path clip-path="url(#clip412)" d="M1868.94 1251.99 L1868.94 1270.08 L1973.79 1270.08 L1973.79 1251.99 L1868.94 1251.99 L1868.94 1251.99  Z" fill="#b3b3b3" fill-rule="evenodd" fill-opacity="1"/>
<polyline clip-path="url(#clip412)" style="stroke:#000000; stroke-linecap:round; stroke-linejoin:round; stroke-width:4; stroke-opacity:1; fill:none" points="1868.94,1251.99 1868.94,1270.08 1973.79,1270.08 1973.79,1251.99 1868.94,1251.99 "/>
<path clip-path="url(#clip412)" d="M2144.88 1270.08 L2144.88 1270.08 L2249.73 1270.08 L2249.73 1270.08 L2144.88 1270.08 L2144.88 1270.08  Z" fill="#b3b3b3" fill-rule="evenodd" fill-opacity="1"/>
<polyline clip-path="url(#clip412)" style="stroke:#000000; stroke-linecap:round; stroke-linejoin:round; stroke-width:4; stroke-opacity:1; fill:none" points="2144.88,1270.08 2144.88,1270.08 2249.73,1270.08 2249.73,1270.08 2144.88,1270.08 "/>
<path clip-path="url(#clip412)" d="M2420.82 1270 L2420.82 1270.08 L2525.67 1270.08 L2525.67 1270 L2420.82 1270 L2420.82 1270  Z" fill="#b3b3b3" fill-rule="evenodd" fill-opacity="1"/>
<polyline clip-path="url(#clip412)" style="stroke:#000000; stroke-linecap:round; stroke-linejoin:round; stroke-width:4; stroke-opacity:1; fill:none" points="2420.82,1270 2420.82,1270.08 2525.67,1270.08 2525.67,1270 2420.82,1270 "/>
<path clip-path="url(#clip412)" d="M2696.75 136.684 L2696.75 1270.08 L2801.61 1270.08 L2801.61 136.684 L2696.75 136.684 L2696.75 136.684  Z" fill="#b3b3b3" fill-rule="evenodd" fill-opacity="1"/>
<polyline clip-path="url(#clip412)" style="stroke:#000000; stroke-linecap:round; stroke-linejoin:round; stroke-width:4; stroke-opacity:1; fill:none" points="2696.75,136.684 2696.75,1270.08 2801.61,1270.08 2801.61,136.684 2696.75,136.684 "/>
<path clip-path="url(#clip412)" d="M2972.69 1247.22 L2972.69 1270.08 L3077.55 1270.08 L3077.55 1247.22 L2972.69 1247.22 L2972.69 1247.22  Z" fill="#b3b3b3" fill-rule="evenodd" fill-opacity="1"/>
<polyline clip-path="url(#clip412)" style="stroke:#000000; stroke-linecap:round; stroke-linejoin:round; stroke-width:4; stroke-opacity:1; fill:none" points="2972.69,1247.22 2972.69,1270.08 3077.55,1270.08 3077.55,1247.22 2972.69,1247.22 "/>
<circle clip-path="url(#clip412)" style="fill:#b3b3b3; stroke:none; fill-opacity:0" cx="541.668" cy="644.272" r="2"/>
<circle clip-path="url(#clip412)" style="fill:#b3b3b3; stroke:none; fill-opacity:0" cx="817.607" cy="1240.48" r="2"/>
<circle clip-path="url(#clip412)" style="fill:#b3b3b3; stroke:none; fill-opacity:0" cx="1093.55" cy="1250.92" r="2"/>
<circle clip-path="url(#clip412)" style="fill:#b3b3b3; stroke:none; fill-opacity:0" cx="1369.49" cy="1270.08" r="2"/>
<circle clip-path="url(#clip412)" style="fill:#b3b3b3; stroke:none; fill-opacity:0" cx="1645.43" cy="1270.08" r="2"/>
<circle clip-path="url(#clip412)" style="fill:#b3b3b3; stroke:none; fill-opacity:0" cx="1921.37" cy="1251.99" r="2"/>
<circle clip-path="url(#clip412)" style="fill:#b3b3b3; stroke:none; fill-opacity:0" cx="2197.3" cy="1270.08" r="2"/>
<circle clip-path="url(#clip412)" style="fill:#b3b3b3; stroke:none; fill-opacity:0" cx="2473.24" cy="1270" r="2"/>
<circle clip-path="url(#clip412)" style="fill:#b3b3b3; stroke:none; fill-opacity:0" cx="2749.18" cy="136.684" r="2"/>
<circle clip-path="url(#clip412)" style="fill:#b3b3b3; stroke:none; fill-opacity:0" cx="3025.12" cy="1247.22" r="2"/>
<path clip-path="url(#clip412)" d="M594.096 1145.13 L594.096 1270.08 L698.953 1270.08 L698.953 1145.13 L594.096 1145.13 L594.096 1145.13  Z" fill="#4682b4" fill-rule="evenodd" fill-opacity="1"/>
<polyline clip-path="url(#clip412)" style="stroke:#000000; stroke-linecap:round; stroke-linejoin:round; stroke-width:4; stroke-opacity:1; fill:none" points="594.096,1145.13 594.096,1270.08 698.953,1270.08 698.953,1145.13 594.096,1145.13 "/>
<path clip-path="url(#clip412)" d="M870.036 1270.08 L870.036 1270.08 L974.893 1270.08 L974.893 1270.08 L870.036 1270.08 L870.036 1270.08  Z" fill="#4682b4" fill-rule="evenodd" fill-opacity="1"/>
<polyline clip-path="url(#clip412)" style="stroke:#000000; stroke-linecap:round; stroke-linejoin:round; stroke-width:4; stroke-opacity:1; fill:none" points="870.036,1270.08 870.036,1270.08 974.893,1270.08 870.036,1270.08 "/>
<path clip-path="url(#clip412)" d="M1145.98 1270.08 L1145.98 1270.08 L1250.83 1270.08 L1250.83 1270.08 L1145.98 1270.08 L1145.98 1270.08  Z" fill="#4682b4" fill-rule="evenodd" fill-opacity="1"/>
<polyline clip-path="url(#clip412)" style="stroke:#000000; stroke-linecap:round; stroke-linejoin:round; stroke-width:4; stroke-opacity:1; fill:none" points="1145.98,1270.08 1145.98,1270.08 1250.83,1270.08 1145.98,1270.08 "/>
<path clip-path="url(#clip412)" d="M1421.91 620.132 L1421.91 1270.08 L1526.77 1270.08 L1526.77 620.132 L1421.91 620.132 L1421.91 620.132  Z" fill="#4682b4" fill-rule="evenodd" fill-opacity="1"/>
<polyline clip-path="url(#clip412)" style="stroke:#000000; stroke-linecap:round; stroke-linejoin:round; stroke-width:4; stroke-opacity:1; fill:none" points="1421.91,620.132 1421.91,1270.08 1526.77,1270.08 1526.77,620.132 1421.91,620.132 "/>
<path clip-path="url(#clip412)" d="M1697.85 1032.2 L1697.85 1270.08 L1802.71 1270.08 L1802.71 1032.2 L1697.85 1032.2 L1697.85 1032.2  Z" fill="#4682b4" fill-rule="evenodd" fill-opacity="1"/>
<polyline clip-path="url(#clip412)" style="stroke:#000000; stroke-linecap:round; stroke-linejoin:round; stroke-width:4; stroke-opacity:1; fill:none" points="1697.85,1032.2 1697.85,1270.08 1802.71,1270.08 1802.71,1032.2 1697.85,1032.2 "/>
<path clip-path="url(#clip412)" d="M1973.79 1126.26 L1973.79 1270.08 L2078.65 1270.08 L2078.65 1126.26 L1973.79 1126.26 L1973.79 1126.26  Z" fill="#4682b4" fill-rule="evenodd" fill-opacity="1"/>
<polyline clip-path="url(#clip412)" style="stroke:#000000; stroke-linecap:round; stroke-linejoin:round; stroke-width:4; stroke-opacity:1; fill:none" points="1973.79,1126.26 1973.79,1270.08 2078.65,1270.08 2078.65,1126.26 1973.79,1126.26 "/>
<path clip-path="url(#clip412)" d="M2249.73 1068.83 L2249.73 1270.08 L2354.59 1270.08 L2354.59 1068.83 L2249.73 1068.83 L2249.73 1068.83  Z" fill="#4682b4" fill-rule="evenodd" fill-opacity="1"/>
<polyline clip-path="url(#clip412)" style="stroke:#000000; stroke-linecap:round; stroke-linejoin:round; stroke-width:4; stroke-opacity:1; fill:none" points="2249.73,1068.83 2249.73,1270.08 2354.59,1270.08 2354.59,1068.83 2249.73,1068.83 "/>
<path clip-path="url(#clip412)" d="M2525.67 1253.05 L2525.67 1270.08 L2630.53 1270.08 L2630.53 1253.05 L2525.67 1253.05 L2525.67 1253.05  Z" fill="#4682b4" fill-rule="evenodd" fill-opacity="1"/>
<polyline clip-path="url(#clip412)" style="stroke:#000000; stroke-linecap:round; stroke-linejoin:round; stroke-width:4; stroke-opacity:1; fill:none" points="2525.67,1253.05 2525.67,1270.08 2630.53,1270.08 2630.53,1253.05 2525.67,1253.05 "/>
<path clip-path="url(#clip412)" d="M2801.61 924.783 L2801.61 1270.08 L2906.47 1270.08 L2906.47 924.783 L2801.61 924.783 L2801.61 924.783  Z" fill="#4682b4" fill-rule="evenodd" fill-opacity="1"/>
<polyline clip-path="url(#clip412)" style="stroke:#000000; stroke-linecap:round; stroke-linejoin:round; stroke-width:4; stroke-opacity:1; fill:none" points="2801.61,924.783 2801.61,1270.08 2906.47,1270.08 2906.47,924.783 2801.61,924.783 "/>
<path clip-path="url(#clip412)" d="M3077.55 1141.26 L3077.55 1270.08 L3182.41 1270.08 L3182.41 1141.26 L3077.55 1141.26 L3077.55 1141.26  Z" fill="#4682b4" fill-rule="evenodd" fill-opacity="1"/>
<polyline clip-path="url(#clip412)" style="stroke:#000000; stroke-linecap:round; stroke-linejoin:round; stroke-width:4; stroke-opacity:1; fill:none" points="3077.55,1141.26 3077.55,1270.08 3182.41,1270.08 3182.41,1141.26 3077.55,1141.26 "/>
<circle clip-path="url(#clip412)" style="fill:#4682b4; stroke:none; fill-opacity:0" cx="646.525" cy="1145.13" r="2"/>
<circle clip-path="url(#clip412)" style="fill:#4682b4; stroke:none; fill-opacity:0" cx="922.464" cy="1270.08" r="2"/>
<circle clip-path="url(#clip412)" style="fill:#4682b4; stroke:none; fill-opacity:0" cx="1198.4" cy="1270.08" r="2"/>
<circle clip-path="url(#clip412)" style="fill:#4682b4; stroke:none; fill-opacity:0" cx="1474.34" cy="620.132" r="2"/>
<circle clip-path="url(#clip412)" style="fill:#4682b4; stroke:none; fill-opacity:0" cx="1750.28" cy="1032.2" r="2"/>
<circle clip-path="url(#clip412)" style="fill:#4682b4; stroke:none; fill-opacity:0" cx="2026.22" cy="1126.26" r="2"/>
<circle clip-path="url(#clip412)" style="fill:#4682b4; stroke:none; fill-opacity:0" cx="2302.16" cy="1068.83" r="2"/>
<circle clip-path="url(#clip412)" style="fill:#4682b4; stroke:none; fill-opacity:0" cx="2578.1" cy="1253.05" r="2"/>
<circle clip-path="url(#clip412)" style="fill:#4682b4; stroke:none; fill-opacity:0" cx="2854.04" cy="924.783" r="2"/>
<circle clip-path="url(#clip412)" style="fill:#4682b4; stroke:none; fill-opacity:0" cx="3129.98" cy="1141.26" r="2"/>
<path clip-path="url(#clip410)" d="M2698.09 329.983 L3244.87 329.983 L3244.87 174.463 L2698.09 174.463  Z" fill="#ffffff" fill-rule="evenodd" fill-opacity="1"/>
<polyline clip-path="url(#clip410)" style="stroke:#000000; stroke-linecap:round; stroke-linejoin:round; stroke-width:4; stroke-opacity:1; fill:none" points="2698.09,329.983 3244.87,329.983 3244.87,174.463 2698.09,174.463 2698.09,329.983 "/>
<path clip-path="url(#clip410)" d="M2731.64 247.039 L2932.93 247.039 L2932.93 205.567 L2731.64 205.567 L2731.64 247.039  Z" fill="#b3b3b3" fill-rule="evenodd" fill-opacity="1"/>
<polyline clip-path="url(#clip410)" style="stroke:#000000; stroke-linecap:round; stroke-linejoin:round; stroke-width:4; stroke-opacity:1; fill:none" points="2731.64,247.039 2932.93,247.039 2932.93,205.567 2731.64,205.567 2731.64,247.039 "/>
<path clip-path="url(#clip410)" d="M2979.88 230.551 Q2974.72 230.551 2972.73 231.732 Q2970.74 232.912 2970.74 235.759 Q2970.74 238.028 2972.22 239.37 Q2973.73 240.69 2976.3 240.69 Q2979.84 240.69 2981.97 238.19 Q2984.12 235.667 2984.12 231.5 L2984.12 230.551 L2979.88 230.551 M2988.38 228.792 L2988.38 243.583 L2984.12 243.583 L2984.12 239.648 Q2982.66 242.009 2980.49 243.144 Q2978.31 244.255 2975.16 244.255 Q2971.18 244.255 2968.82 242.032 Q2966.48 239.787 2966.48 236.037 Q2966.48 231.662 2969.4 229.44 Q2972.34 227.218 2978.15 227.218 L2984.12 227.218 L2984.12 226.801 Q2984.12 223.861 2982.18 222.264 Q2980.25 220.644 2976.76 220.644 Q2974.54 220.644 2972.43 221.176 Q2970.32 221.708 2968.38 222.773 L2968.38 218.838 Q2970.72 217.935 2972.92 217.496 Q2975.11 217.033 2977.2 217.033 Q2982.82 217.033 2985.6 219.949 Q2988.38 222.866 2988.38 228.792 Z" fill="#000000" fill-rule="nonzero" fill-opacity="1" /><path clip-path="url(#clip410)" d="M3001.36 210.296 L3001.36 217.658 L3010.14 217.658 L3010.14 220.968 L3001.36 220.968 L3001.36 235.042 Q3001.36 238.213 3002.22 239.116 Q3003.1 240.019 3005.76 240.019 L3010.14 240.019 L3010.14 243.583 L3005.76 243.583 Q3000.83 243.583 2998.96 241.755 Q2997.08 239.903 2997.08 235.042 L2997.08 220.968 L2993.96 220.968 L2993.96 217.658 L2997.08 217.658 L2997.08 210.296 L3001.36 210.296 Z" fill="#000000" fill-rule="nonzero" fill-opacity="1" /><path clip-path="url(#clip410)" d="M3032.22 239.648 L3039.86 239.648 L3039.86 213.283 L3031.55 214.949 L3031.55 210.69 L3039.81 209.023 L3044.49 209.023 L3044.49 239.648 L3052.13 239.648 L3052.13 243.583 L3032.22 243.583 L3032.22 239.648 Z" fill="#000000" fill-rule="nonzero" fill-opacity="1" /><path clip-path="url(#clip410)" d="M3061.57 237.704 L3066.46 237.704 L3066.46 243.583 L3061.57 243.583 L3061.57 237.704 Z" fill="#000000" fill-rule="nonzero" fill-opacity="1" /><path clip-path="url(#clip410)" d="M3080.67 239.648 L3096.99 239.648 L3096.99 243.583 L3075.04 243.583 L3075.04 239.648 Q3077.71 236.894 3082.29 232.264 Q3086.9 227.611 3088.08 226.269 Q3090.32 223.745 3091.2 222.009 Q3092.11 220.25 3092.11 218.56 Q3092.11 215.806 3090.16 214.07 Q3088.24 212.334 3085.14 212.334 Q3082.94 212.334 3080.48 213.097 Q3078.05 213.861 3075.28 215.412 L3075.28 210.69 Q3078.1 209.556 3080.55 208.977 Q3083.01 208.398 3085.04 208.398 Q3090.42 208.398 3093.61 211.084 Q3096.8 213.769 3096.8 218.259 Q3096.8 220.389 3095.99 222.31 Q3095.21 224.208 3093.1 226.801 Q3092.52 227.472 3089.42 230.69 Q3086.32 233.884 3080.67 239.648 Z" fill="#000000" fill-rule="nonzero" fill-opacity="1" /><path clip-path="url(#clip410)" d="M3142.82 227.935 L3142.82 243.583 L3138.56 243.583 L3138.56 228.074 Q3138.56 224.394 3137.13 222.565 Q3135.69 220.736 3132.82 220.736 Q3129.37 220.736 3127.38 222.935 Q3125.39 225.134 3125.39 228.931 L3125.39 243.583 L3121.11 243.583 L3121.11 207.565 L3125.39 207.565 L3125.39 221.685 Q3126.92 219.347 3128.98 218.19 Q3131.06 217.033 3133.77 217.033 Q3138.24 217.033 3140.53 219.81 Q3142.82 222.565 3142.82 227.935 Z" fill="#000000" fill-rule="nonzero" fill-opacity="1" /><path clip-path="url(#clip410)" d="M2731.64 298.879 L2932.93 298.879 L2932.93 257.407 L2731.64 257.407 L2731.64 298.879  Z" fill="#4682b4" fill-rule="evenodd" fill-opacity="1"/>
<polyline clip-path="url(#clip410)" style="stroke:#000000; stroke-linecap:round; stroke-linejoin:round; stroke-width:4; stroke-opacity:1; fill:none" points="2731.64,298.879 2932.93,298.879 2932.93,257.407 2731.64,257.407 2731.64,298.879 "/>
<path clip-path="url(#clip410)" d="M2979.88 282.391 Q2974.72 282.391 2972.73 283.572 Q2970.74 284.752 2970.74 287.599 Q2970.74 289.868 2972.22 291.21 Q2973.73 292.53 2976.3 292.53 Q2979.84 292.53 2981.97 290.03 Q2984.12 287.507 2984.12 283.34 L2984.12 282.391 L2979.88 282.391 M2988.38 280.632 L2988.38 295.423 L2984.12 295.423 L2984.12 291.488 Q2982.66 293.849 2980.49 294.984 Q2978.31 296.095 2975.16 296.095 Q2971.18 296.095 2968.82 293.872 Q2966.48 291.627 2966.48 287.877 Q2966.48 283.502 2969.4 281.28 Q2972.34 279.058 2978.15 279.058 L2984.12 279.058 L2984.12 278.641 Q2984.12 275.701 2982.18 274.104 Q2980.25 272.484 2976.76 272.484 Q2974.54 272.484 2972.43 273.016 Q2970.32 273.548 2968.38 274.613 L2968.38 270.678 Q2970.72 269.775 2972.92 269.336 Q2975.11 268.873 2977.2 268.873 Q2982.82 268.873 2985.6 271.789 Q2988.38 274.706 2988.38 280.632 Z" fill="#000000" fill-rule="nonzero" fill-opacity="1" /><path clip-path="url(#clip410)" d="M3001.36 262.136 L3001.36 269.498 L3010.14 269.498 L3010.14 272.808 L3001.36 272.808 L3001.36 286.882 Q3001.36 290.053 3002.22 290.956 Q3003.1 291.859 3005.76 291.859 L3010.14 291.859 L3010.14 295.423 L3005.76 295.423 Q3000.83 295.423 2998.96 293.595 Q2997.08 291.743 2997.08 286.882 L2997.08 272.808 L2993.96 272.808 L2993.96 269.498 L2997.08 269.498 L2997.08 262.136 L3001.36 262.136 Z" fill="#000000" fill-rule="nonzero" fill-opacity="1" /><path clip-path="url(#clip410)" d="M3035.44 291.488 L3051.76 291.488 L3051.76 295.423 L3029.81 295.423 L3029.81 291.488 Q3032.48 288.734 3037.06 284.104 Q3041.67 279.451 3042.85 278.109 Q3045.09 275.585 3045.97 273.849 Q3046.87 272.09 3046.87 270.4 Q3046.87 267.646 3044.93 265.91 Q3043.01 264.174 3039.91 264.174 Q3037.71 264.174 3035.25 264.937 Q3032.82 265.701 3030.05 267.252 L3030.05 262.53 Q3032.87 261.396 3035.32 260.817 Q3037.78 260.238 3039.81 260.238 Q3045.18 260.238 3048.38 262.924 Q3051.57 265.609 3051.57 270.099 Q3051.57 272.229 3050.76 274.15 Q3049.98 276.048 3047.87 278.641 Q3047.29 279.312 3044.19 282.53 Q3041.09 285.724 3035.44 291.488 Z" fill="#000000" fill-rule="nonzero" fill-opacity="1" /><path clip-path="url(#clip410)" d="M3071.57 279.011 Q3068.24 279.011 3066.32 280.794 Q3064.42 282.576 3064.42 285.701 Q3064.42 288.826 3066.32 290.609 Q3068.24 292.391 3071.57 292.391 Q3074.91 292.391 3076.83 290.609 Q3078.75 288.803 3078.75 285.701 Q3078.75 282.576 3076.83 280.794 Q3074.93 279.011 3071.57 279.011 M3066.9 277.021 Q3063.89 276.28 3062.2 274.22 Q3060.53 272.16 3060.53 269.197 Q3060.53 265.053 3063.47 262.646 Q3066.43 260.238 3071.57 260.238 Q3076.73 260.238 3079.67 262.646 Q3082.61 265.053 3082.61 269.197 Q3082.61 272.16 3080.92 274.22 Q3079.26 276.28 3076.27 277.021 Q3079.65 277.808 3081.53 280.099 Q3083.42 282.391 3083.42 285.701 Q3083.42 290.724 3080.35 293.409 Q3077.29 296.095 3071.57 296.095 Q3065.86 296.095 3062.78 293.409 Q3059.72 290.724 3059.72 285.701 Q3059.72 282.391 3061.62 280.099 Q3063.52 277.808 3066.9 277.021 M3065.18 269.636 Q3065.18 272.322 3066.85 273.826 Q3068.54 275.331 3071.57 275.331 Q3074.58 275.331 3076.27 273.826 Q3077.98 272.322 3077.98 269.636 Q3077.98 266.951 3076.27 265.447 Q3074.58 263.942 3071.57 263.942 Q3068.54 263.942 3066.85 265.447 Q3065.18 266.951 3065.18 269.636 Z" fill="#000000" fill-rule="nonzero" fill-opacity="1" /><path clip-path="url(#clip410)" d="M3123.26 273.433 L3123.26 259.405 L3127.52 259.405 L3127.52 295.423 L3123.26 295.423 L3123.26 291.534 Q3121.92 293.849 3119.86 294.984 Q3117.82 296.095 3114.95 296.095 Q3110.25 296.095 3107.29 292.345 Q3104.35 288.595 3104.35 282.484 Q3104.35 276.373 3107.29 272.623 Q3110.25 268.873 3114.95 268.873 Q3117.82 268.873 3119.86 270.007 Q3121.92 271.118 3123.26 273.433 M3108.75 282.484 Q3108.75 287.183 3110.67 289.868 Q3112.61 292.53 3115.99 292.53 Q3119.37 292.53 3121.32 289.868 Q3123.26 287.183 3123.26 282.484 Q3123.26 277.785 3121.32 275.123 Q3119.37 272.437 3115.99 272.437 Q3112.61 272.437 3110.67 275.123 Q3108.75 277.785 3108.75 282.484 Z" fill="#000000" fill-rule="nonzero" fill-opacity="1" /><path clip-path="url(#clip410)" d="M3148.08 282.391 Q3142.91 282.391 3140.92 283.572 Q3138.93 284.752 3138.93 287.599 Q3138.93 289.868 3140.41 291.21 Q3141.92 292.53 3144.49 292.53 Q3148.03 292.53 3150.16 290.03 Q3152.31 287.507 3152.31 283.34 L3152.31 282.391 L3148.08 282.391 M3156.57 280.632 L3156.57 295.423 L3152.31 295.423 L3152.31 291.488 Q3150.85 293.849 3148.68 294.984 Q3146.5 296.095 3143.35 296.095 Q3139.37 296.095 3137.01 293.872 Q3134.67 291.627 3134.67 287.877 Q3134.67 283.502 3137.59 281.28 Q3140.53 279.058 3146.34 279.058 L3152.31 279.058 L3152.31 278.641 Q3152.31 275.701 3150.37 274.104 Q3148.45 272.484 3144.95 272.484 Q3142.73 272.484 3140.62 273.016 Q3138.52 273.548 3136.57 274.613 L3136.57 270.678 Q3138.91 269.775 3141.11 269.336 Q3143.31 268.873 3145.39 268.873 Q3151.02 268.873 3153.79 271.789 Q3156.57 274.706 3156.57 280.632 Z" fill="#000000" fill-rule="nonzero" fill-opacity="1" /><path clip-path="url(#clip410)" d="M3176.13 297.831 Q3174.33 302.46 3172.61 303.872 Q3170.9 305.284 3168.03 305.284 L3164.63 305.284 L3164.63 301.72 L3167.13 301.72 Q3168.89 301.72 3169.86 300.886 Q3170.83 300.053 3172.01 296.951 L3172.78 295.007 L3162.29 269.498 L3166.8 269.498 L3174.91 289.775 L3183.01 269.498 L3187.52 269.498 L3176.13 297.831 Z" fill="#000000" fill-rule="nonzero" fill-opacity="1" /><path clip-path="url(#clip410)" d="M3209.93 270.261 L3209.93 274.289 Q3208.12 273.363 3206.18 272.9 Q3204.23 272.437 3202.15 272.437 Q3198.98 272.437 3197.38 273.41 Q3195.81 274.382 3195.81 276.326 Q3195.81 277.808 3196.94 278.664 Q3198.08 279.498 3201.5 280.261 L3202.96 280.585 Q3207.5 281.558 3209.4 283.34 Q3211.32 285.099 3211.32 288.271 Q3211.32 291.882 3208.45 293.988 Q3205.6 296.095 3200.6 296.095 Q3198.52 296.095 3196.25 295.678 Q3194 295.284 3191.5 294.474 L3191.5 290.076 Q3193.86 291.303 3196.16 291.928 Q3198.45 292.53 3200.69 292.53 Q3203.7 292.53 3205.32 291.511 Q3206.94 290.47 3206.94 288.595 Q3206.94 286.859 3205.76 285.933 Q3204.6 285.007 3200.65 284.15 L3199.16 283.803 Q3195.21 282.97 3193.45 281.257 Q3191.69 279.521 3191.69 276.511 Q3191.69 272.854 3194.28 270.863 Q3196.87 268.873 3201.64 268.873 Q3204 268.873 3206.09 269.22 Q3208.17 269.567 3209.93 270.261 Z" fill="#000000" fill-rule="nonzero" fill-opacity="1" /></svg>
